<svg width="191" height="72" viewBox="0 0 191 72" fill="none" xmlns="http://www.w3.org/2000/svg">
<g opacity="0.4" clip-path="url(#clip0_17_944)">
<path d="M43.3059 17.1921C39.3527 21.4366 35.3188 25.352 31.7642 29.668C25.908 36.7834 22.5718 44.948 23.0985 54.3812C23.6443 64.1244 28.0056 72.6324 40.1689 71.3829C42.7743 71.1159 46.158 70.3767 47.5723 68.5787C49.4611 66.1703 49.7743 62.5172 50.7851 59.3315C48.8014 58.6162 48.0848 59.7655 47.2353 60.829C45.7119 62.7319 44.3072 64.8159 42.4706 66.3659C40.1025 68.3641 37.2266 69.3704 34.1513 67.83C31.1995 66.3516 30.1317 63.6237 30.2361 60.5381C30.3548 57.0662 30.5636 53.561 31.209 50.1558C33.4442 38.3 39.7418 28.5615 46.8509 19.9725C50.4909 20.8738 53.6183 22.0518 56.8265 22.3427C61.2352 22.748 65.4922 21.7656 68.7193 18.3367C71.5857 15.2892 70.6176 11.5074 66.6074 10.4439C62.1559 9.26591 57.6332 9.38991 53.5234 11.6123C51.8339 12.5232 50.7851 12.1798 49.3045 11.4406C42.8977 8.24056 36.4767 5.07391 29.9704 2.10755C26.3399 0.452689 22.5101 -0.229287 18.4667 0.80083C12.3494 2.36031 8.60981 6.786 8.92302 13.0955C9.05116 15.7041 10.2945 18.2365 10.8071 20.85C11.1583 22.6479 11.3908 24.5555 11.144 26.3439C11.0301 27.1642 9.62539 28.3946 8.82811 28.3803C7.71761 28.3612 6.23694 27.6173 5.60101 26.7016C4.22949 24.7224 5.29728 22.8053 6.52643 21.0503C6.99626 20.3826 7.32846 19.6148 7.83151 18.6943C4.7183 18.432 2.51628 19.362 1.43426 21.3269C0.233587 23.5063 0.418671 25.7669 1.65256 27.87C3.83085 31.5756 9.01319 32.8966 12.881 30.8173C16.3691 28.9431 18.2484 23.9594 16.0274 20.1584C14.8742 18.1841 13.6023 16.2764 12.4539 14.2973C10.0193 10.11 12.2261 5.43159 17.0667 5.16929C19.5392 5.03576 22.3487 5.47928 24.527 6.59524C30.9622 9.90974 37.1696 13.6868 43.3059 17.1921Z" fill="white"/>
<path d="M76.4653 12.7187C76.0761 13.6678 75.7771 14.531 75.3785 15.3512C71.0172 24.298 66.7033 33.2686 62.2281 42.1581C61.0179 44.5617 60.866 46.9081 61.2362 49.5549C63.5948 49.3022 65.8253 49.0685 68.1223 48.8205C66.0674 44.7 69.3609 42.1867 70.5141 38.5003C72.5168 41.2615 73.0199 43.937 73.3853 46.6315C74.0829 51.7487 75.7629 56.327 80.9785 58.3109C88.3723 61.1247 95.5289 60.0993 102.168 55.9407C103.478 55.1204 104.271 53.4656 105.471 51.9872C101.641 50.9427 100.412 51.6104 98.6231 53.8662C97.5221 55.2587 95.7851 56.7467 94.1526 56.9994C86.7208 58.1583 80.9547 56.7038 78.8381 47.6664C77.8795 43.5698 77.2198 39.5018 73.4517 36.6785C84.7134 33.4689 89.3452 28.3279 87.7364 20.8929C83.7357 23.3203 79.8015 25.7049 75.7914 28.1371C76.8402 25.9242 77.8937 23.6685 78.9758 21.427C80.3141 18.6514 81.7093 15.9092 83.0144 13.1193C83.6361 11.7983 83.4225 10.2531 81.9608 10.0194C79.2178 9.58544 76.4415 9.90497 73.1955 11.4168C74.5717 11.9652 75.3121 12.2609 76.4653 12.7187Z" fill="white"/>
<path d="M113.994 49.4833C115.361 49.2783 116.286 49.1924 117.188 48.9921C118.73 48.6535 119.689 48.2148 120.111 46.1212C121.203 40.7273 124.354 36.3446 128.278 32.5484C126.252 38.1139 121.9 42.8925 122.883 49.6264C125.702 49.0827 128.293 48.5772 130.889 48.0765C130.884 47.8285 130.884 47.5805 130.879 47.3277C130.077 46.9891 129.28 46.6505 128.274 46.2213C128.839 44.8669 129.365 43.5697 129.921 42.2821C131.392 38.8769 132.986 35.5243 134.287 32.0572C134.676 31.0128 134.695 29.2101 134.064 28.5853C133.456 27.9844 131.681 28.137 130.628 28.5281C129.047 29.1099 127.643 30.1877 126.252 31.0032C126.257 28.0226 125.512 27.3024 122.508 28.1275C121.127 28.5042 119.907 29.4914 118.55 30.2306C118.502 29.5296 118.455 28.8619 118.388 27.9653C114.967 28.7665 111.483 28.2849 108.342 29.5868C108.361 29.8157 108.384 30.0446 108.403 30.2736C109.595 30.5692 110.79 30.8649 112.618 31.318C110.923 34.642 109.419 37.885 107.649 40.9801C106.102 43.6889 105.266 46.4454 105.822 49.6741C106.842 49.4929 107.824 49.1686 108.807 49.1733C110.672 49.1829 110.985 48.3006 111.512 46.5504C113.173 41.023 116.063 36.087 120.211 31.9618C118.668 37.9041 113.832 42.654 113.994 49.4833Z" fill="white"/>
<path d="M162.609 30.6934C162.809 30.8412 163.013 30.9939 163.212 31.1417C162.98 31.9334 162.832 32.7632 162.5 33.5024C160.749 37.3796 158.751 41.1615 157.218 45.1246C155.714 49.0066 156.022 49.2403 160.009 49.04C160.953 48.9923 161.907 49.0304 162.847 48.9255C163.473 48.854 164.081 48.5965 165.338 48.2388C164.019 47.595 163.359 47.2754 162.467 46.8414C162.79 45.8924 163.003 44.8861 163.459 44.0134C164.773 41.4906 166.311 39.0774 167.512 36.5021C168.361 34.6756 169.03 32.6964 169.353 30.7125C169.628 29.0147 168.717 27.6507 166.719 28.0657C164.403 28.5426 162.144 29.277 159.914 29.8874C160.118 28.4376 159.178 28.1229 157.493 28.4567C155.329 28.8859 152.966 28.5998 150.683 30.4931C152.164 30.8365 153.094 31.0511 154.167 31.2991C152.083 37.6515 147.167 42.7353 147.466 49.7744C150.318 49.3118 152.928 48.8921 155.538 48.4677C155.576 48.2722 155.619 48.0766 155.657 47.8811C153.293 47.2754 153.156 45.8638 154.039 44.0849C155.681 40.7657 157.176 37.3653 159.031 34.1748C159.847 32.7918 161.399 31.8428 162.609 30.6934Z" fill="white"/>
<path d="M93.5449 44.0657C93.9388 45.6681 94.1666 47.3897 94.831 48.9206C95.1347 49.6168 96.3402 50.4037 97.0663 50.3417C99.3252 50.1462 102.543 45.9113 102.576 43.2358C101.594 43.975 100.716 44.6332 99.2351 45.7444C99.2351 41.9196 99.2351 38.7482 99.2351 35.572C98.9361 35.4289 98.6418 35.2906 98.3429 35.1475C95.4385 38.3952 92.5293 41.643 89.625 44.8907C89.4494 44.7238 89.2738 44.5569 89.1029 44.39C90.7307 38.5669 93.6209 33.6453 99.0879 30.2735C100.417 33.3925 101.47 36.5019 105.134 37.8134C104.939 34.394 104.764 31.2941 104.583 28.0845C102.614 28.0845 100.668 27.7698 98.8601 28.137C90.0663 29.9349 82.0365 37.8563 82.8718 48.086C83.0759 50.5897 83.7877 51.162 85.8663 49.7599C88.5145 47.9763 91.0202 45.9542 93.5449 44.0657Z" fill="white"/>
<path d="M49.4231 44.1993C49.8123 45.7874 50.0543 47.4565 50.6712 48.9636C50.9465 49.636 51.9763 50.4086 52.6739 50.4181C55.0848 50.4515 58.5064 46.2166 58.3024 43.5173C57.3959 44.1802 56.5749 44.7859 55.2177 45.7826C55.0373 42.0627 54.8855 38.9009 54.7241 35.6102C53.0014 37.308 51.4448 38.8627 49.8692 40.3983C48.3553 41.8767 46.8272 43.3361 45.3038 44.8002C46.6564 38.6433 49.5418 33.693 54.9661 30.3785C56.3187 33.5404 57.32 36.7595 61.0312 37.928C60.8271 34.5801 60.6325 31.442 60.438 28.2897C50.396 26.0482 37.5445 36.2731 38.712 48.0622C38.9683 50.647 39.7513 51.3004 41.8821 49.8458C44.4686 48.0765 46.9174 46.0878 49.4231 44.1993Z" fill="white"/>
<path d="M175.816 40.8562C183.319 40.1789 191.05 33.8266 190.419 29.1052C185.692 28.7714 180.975 28.5806 176.746 31.3419C171.958 34.4704 168.921 38.6099 169.281 44.6762C169.438 47.3468 170.99 49.4595 173.225 49.946C175.973 50.5421 186.001 45.9209 187.752 42.8878C186.66 43.0976 185.891 43.1405 185.199 43.3981C183.144 44.1659 181.146 45.0958 179.072 45.8064C177.069 46.4932 176.077 45.8255 175.835 43.7605C175.731 42.8401 175.816 41.8958 175.816 40.8562Z" fill="white"/>
<path d="M148.362 29.0957C148.135 28.8573 147.911 28.6188 147.684 28.3804C144.608 28.7571 141.533 29.1339 138.458 29.5106C138.406 29.8254 138.358 30.1354 138.306 30.4501C139.236 30.6886 140.166 30.9271 141.377 31.2323C141.078 31.9429 140.821 32.663 140.48 33.3402C138.795 36.6452 137.053 39.9215 135.402 43.2455C134.88 44.29 134.396 45.4155 134.206 46.5553C133.802 48.9255 134.714 49.8173 137.082 49.4835C138.861 49.2307 140.622 48.8301 142.383 48.4724C142.834 48.3818 143.265 48.2054 143.712 48.0671C140.309 46.603 140.147 46.293 141.505 43.5317C142.411 41.6908 143.579 39.9787 144.447 38.1188C145.833 35.1477 147.067 32.105 148.362 29.0957Z" fill="white"/>
<path d="M146.217 18.0361C145.225 18.9613 144.233 19.9533 143.166 20.8642C141.595 22.1995 141.903 23.4299 143.317 24.5697C145.648 26.444 148.343 26.2103 151.129 26.0386C149.477 23.3489 147.935 20.8356 146.217 18.0361Z" fill="white"/>
<path d="M43.3063 17.1922C37.1701 13.6869 30.9674 9.90981 24.5227 6.60009C22.3444 5.47936 19.5349 5.0406 17.0624 5.17414C12.2265 5.43643 10.015 10.1149 12.4495 14.3021C13.598 16.2813 14.8699 18.1841 16.0231 20.1633C18.2393 23.9642 16.36 28.9431 12.8767 30.8221C9.00888 32.9015 3.83129 31.5804 1.64825 27.8749C0.414359 25.7765 0.224529 23.5112 1.42995 21.3317C2.51197 19.3669 4.71399 18.4369 7.82719 18.6992C7.32415 19.6196 6.99195 20.3874 6.52212 21.0551C5.29297 22.8149 4.22518 24.7273 5.5967 26.7064C6.23263 27.6221 7.7133 28.3661 8.8238 28.3852C9.62583 28.3995 11.0258 27.169 11.1397 26.3488C11.3865 24.5651 11.154 22.6527 10.8028 20.8548C10.2902 18.2414 9.05159 15.709 8.91871 13.1003C8.61024 6.78608 12.3499 2.36039 18.4671 0.800907C22.5105 -0.22921 26.3403 0.447997 29.9708 2.10286C36.4772 5.07399 42.8982 8.24064 49.3002 11.4359C50.7761 12.1751 51.8296 12.5185 53.5191 11.6076C57.6289 9.38999 62.1564 9.26122 66.6031 10.4392C70.6133 11.5027 71.5814 15.2845 68.715 18.332C65.4879 21.7609 61.2309 22.7434 56.8221 22.338C53.614 22.0423 50.4866 20.8691 46.8466 19.9678C39.7375 28.5616 33.4447 38.2953 31.2047 50.1511C30.564 53.5515 30.3552 57.0615 30.2318 60.5334C30.1227 63.619 31.1904 66.3469 34.147 67.8253C37.2223 69.3657 40.0982 68.3594 42.4663 66.3612C44.3029 64.8112 45.7076 62.7272 47.231 60.8243C48.0805 59.7608 48.7971 58.6115 50.7808 59.3268C49.77 62.5126 49.4568 66.1657 47.568 68.574C46.1537 70.3767 42.77 71.1112 40.1646 71.3782C28.0013 72.6277 23.64 64.1197 23.0942 54.3765C22.5627 44.9433 25.9037 36.7787 31.7599 29.6633C35.3192 25.3473 39.3531 21.4319 43.3063 17.1922ZM54.7103 14.0494C58.0703 16.2384 61.435 17.3734 65.1082 16.9585C66.157 16.8393 67.0919 15.6995 68.0743 15.0318C67.2817 14.2735 66.6221 13.1766 65.6824 12.8189C62.0425 11.4407 58.4832 11.9462 54.7103 14.0494Z" fill="black"/>
<path d="M76.4654 12.7188C75.3122 12.261 74.5719 11.9653 73.2003 11.4216C76.4417 9.90985 79.2227 9.59033 81.9657 10.0243C83.4274 10.2532 83.6362 11.7984 83.0193 13.1242C81.7094 15.9141 80.319 18.6611 78.9807 21.4319C77.8986 23.6734 76.8451 25.9291 75.7963 28.142C79.8017 25.7098 83.7406 23.3252 87.7413 20.8978C89.3548 28.3375 84.7182 33.4738 73.4566 36.6834C77.2295 39.5019 77.8844 43.5747 78.843 47.6713C80.9596 56.7086 86.7257 58.1632 94.1575 57.0043C95.79 56.7468 97.527 55.2589 98.628 53.8711C100.417 51.6153 101.646 50.9524 105.476 51.992C104.275 53.4705 103.483 55.1253 102.173 55.9456C95.5338 60.1042 88.3772 61.1296 80.9834 58.3158C75.763 56.3319 74.0831 51.7536 73.3902 46.6364C73.0248 43.9371 72.5217 41.2664 70.519 38.5051C69.3658 42.1916 66.0675 44.7049 68.1272 48.8254C65.8302 49.0686 63.6045 49.3071 61.2411 49.5598C60.8709 46.913 61.0228 44.5618 62.233 42.163C66.7082 33.2735 71.0221 24.3029 75.3834 15.3561C75.7773 14.5311 76.0763 13.6631 76.4654 12.7188ZM72.7732 33.7647C78.1786 32.5581 80.4044 30.6267 81.0261 26.8496C78.3779 29.0672 75.8437 31.1894 72.7732 33.7647Z" fill="black"/>
<path d="M113.994 49.4834C113.833 42.6494 118.664 37.9041 120.22 31.9762C116.077 36.0967 113.183 41.0374 111.522 46.5648C110.995 48.315 110.682 49.1973 108.816 49.1877C107.834 49.183 106.852 49.5073 105.831 49.6885C105.276 46.4551 106.111 43.6986 107.659 40.9945C109.429 37.8994 110.933 34.6516 112.627 31.3324C110.8 30.8793 109.609 30.5836 108.413 30.288C108.394 30.059 108.37 29.8301 108.351 29.6012C111.493 28.2993 114.981 28.7809 118.398 27.9797C118.46 28.8715 118.507 29.544 118.559 30.245C119.917 29.5011 121.136 28.5186 122.517 28.1419C125.521 27.3216 126.267 28.0417 126.262 31.0176C127.652 30.2021 129.052 29.1243 130.637 28.5425C131.696 28.1514 133.471 27.9988 134.073 28.5997C134.7 29.2245 134.685 31.0319 134.296 32.0716C133.001 35.5387 131.401 38.8961 129.93 42.2964C129.375 43.5841 128.848 44.8813 128.283 46.2357C129.29 46.6601 130.087 47.0035 130.889 47.3421C130.894 47.5901 130.894 47.8381 130.898 48.0909C128.302 48.5916 125.707 49.0924 122.892 49.6408C121.91 42.9069 126.262 38.1283 128.288 32.5628C124.364 36.359 121.212 40.7417 120.121 46.1355C119.698 48.2244 118.74 48.6631 117.197 49.0065C116.291 49.1925 115.361 49.2784 113.994 49.4834Z" fill="black"/>
<path d="M162.61 30.6932C161.4 31.8425 159.848 32.7915 159.041 34.1746C157.186 37.3651 155.686 40.7654 154.049 44.0847C153.171 45.8635 153.308 47.28 155.667 47.8809C155.629 48.0764 155.586 48.2719 155.548 48.4675C152.938 48.8919 150.323 49.3116 147.476 49.7742C147.172 42.735 152.093 37.6512 154.177 31.2988C153.104 31.0508 152.174 30.8362 150.693 30.4929C152.976 28.5995 155.34 28.8857 157.504 28.4565C159.188 28.1226 160.128 28.4374 159.924 29.8872C162.15 29.2815 164.413 28.5471 166.729 28.0654C168.727 27.6505 169.638 29.0145 169.363 30.7122C169.04 32.6962 168.371 34.6753 167.522 36.5019C166.321 39.0772 164.784 41.4855 163.469 44.0131C163.013 44.8907 162.805 45.8922 162.477 46.8412C163.369 47.2752 164.029 47.5947 165.348 48.2385C164.091 48.5962 163.483 48.8537 162.857 48.9253C161.917 49.0302 160.963 48.992 160.019 49.0397C156.032 49.24 155.719 49.0111 157.228 45.1243C158.766 41.1613 160.759 37.3794 162.51 33.5021C162.847 32.7582 162.99 31.9283 163.222 31.1415C163.013 30.9936 162.814 30.8458 162.61 30.6932Z" fill="black"/>
<path d="M93.5447 44.0658C91.02 45.9543 88.519 47.9764 85.8614 49.7648C83.778 51.1669 83.0709 50.5946 82.8668 48.0909C82.0316 37.8565 90.0614 29.9351 98.8552 28.1419C100.663 27.7699 102.614 28.0895 104.579 28.0895C104.759 31.2943 104.935 34.3989 105.129 37.8183C101.465 36.5021 100.412 33.3926 99.083 30.2784C93.6159 33.6549 90.721 38.5718 89.098 44.3949C89.2736 44.5618 89.4492 44.7287 89.62 44.8956C92.5244 41.6479 95.4335 38.4002 98.3379 35.1524C98.6369 35.2955 98.9311 35.4338 99.2301 35.5769C99.2301 38.7531 99.2301 41.9245 99.2301 45.7493C100.711 44.6381 101.584 43.98 102.571 43.2408C102.538 45.9162 99.3203 50.1464 97.0613 50.3467C96.3352 50.4086 95.1298 49.6218 94.8261 48.9255C94.1617 47.3898 93.9386 45.6682 93.5447 44.0658Z" fill="black"/>
<path d="M49.4242 44.1993C46.9184 46.0878 44.4744 48.0765 41.8785 49.8458C39.7476 51.3004 38.9646 50.647 38.7083 48.0622C37.5409 36.2731 50.397 26.053 60.4343 28.2897C60.6288 31.442 60.8234 34.5801 61.0275 37.928C57.3163 36.7595 56.3102 33.5404 54.9624 30.3785C49.5381 33.693 46.6527 38.6433 45.3001 44.8002C46.8235 43.3313 48.3516 41.872 49.8655 40.3983C51.4411 38.8627 52.9977 37.308 54.7204 35.6102C54.877 38.8961 55.0336 42.0627 55.214 45.7826C56.5712 44.7859 57.397 44.1802 58.2987 43.5173C58.5028 46.2214 55.0811 50.4563 52.6703 50.4181C51.9726 50.4086 50.9428 49.636 50.6676 48.9636C50.0506 47.4565 49.8133 45.7874 49.4242 44.1993Z" fill="black"/>
<path d="M175.816 40.8563C175.816 41.8959 175.726 42.8402 175.835 43.7654C176.073 45.8304 177.069 46.4981 179.072 45.8113C181.146 45.1007 183.139 44.1708 185.199 43.4029C185.891 43.1454 186.66 43.1025 187.752 42.8927C186.001 45.921 175.973 50.5422 173.225 49.9509C170.99 49.4692 169.443 47.3517 169.281 44.681C168.921 38.6148 171.958 34.4753 176.746 31.3468C180.97 28.5855 185.687 28.7762 190.419 29.1101C191.05 33.8267 183.319 40.1791 175.816 40.8563ZM176.799 37.4845C180.002 37.4988 182.978 34.8616 183.765 31.2609C180.424 32.3101 178.137 34.275 176.799 37.4845Z" fill="black"/>
<path d="M148.363 29.0957C147.063 32.105 145.829 35.1477 144.443 38.1188C143.575 39.974 142.407 41.6861 141.501 43.5317C140.143 46.293 140.305 46.6029 143.708 48.0671C143.266 48.2054 142.83 48.3818 142.379 48.4724C140.613 48.8301 138.857 49.2307 137.078 49.4835C134.71 49.8173 133.803 48.9207 134.202 46.5553C134.396 45.4155 134.88 44.2947 135.398 43.2455C137.049 39.9263 138.791 36.6452 140.476 33.3402C140.817 32.6678 141.074 31.9476 141.373 31.2323C140.167 30.9223 139.232 30.6838 138.302 30.4501C138.354 30.1354 138.402 29.8254 138.454 29.5106C141.529 29.1339 144.604 28.7571 147.68 28.3804C147.912 28.6188 148.14 28.8573 148.363 29.0957Z" fill="black"/>
<path d="M146.217 18.0361C147.935 20.8356 149.477 23.3441 151.129 26.0338C148.343 26.2055 145.643 26.4392 143.317 24.565C141.903 23.4252 141.595 22.1948 143.166 20.8594C144.229 19.9581 145.225 18.9613 146.217 18.0361Z" fill="black"/>
<path d="M54.7102 14.0493C58.4831 11.9462 62.0424 11.4406 65.6823 12.8189C66.622 13.1766 67.2864 14.2735 68.0742 15.0317C67.0871 15.7042 66.1522 16.844 65.1081 16.9584C61.4302 17.3686 58.0702 16.2335 54.7102 14.0493Z" fill="white"/>
<path d="M72.773 33.7646C75.8435 31.1893 78.3777 29.0671 81.0258 26.8495C80.4042 30.6266 78.1784 32.5581 72.773 33.7646Z" fill="white"/>
<path d="M176.8 37.4845C178.143 34.2749 180.425 32.3053 183.766 31.2609C182.974 34.8663 180.003 37.5036 176.8 37.4845Z" fill="white"/>
</g>
<defs>
<clipPath id="clip0_17_944">
<rect width="189.834" height="71.1878" fill="white" transform="translate(0.622986 0.314453)"/>
</clipPath>
</defs>
</svg>
