<svg width="171" height="34" viewBox="0 0 171 34" fill="none" xmlns="http://www.w3.org/2000/svg">
<g opacity="0.4" clip-path="url(#clip0_17_914)">
<path d="M45.1736 2.95713C45.2121 2.72526 45.208 2.69018 45.2222 2.6629C46.5633 0.0733643 46.5633 0.0733643 49.5858 0.0733643C81.4481 0.0733643 113.312 0.0733643 145.175 0.0733643C145.568 0.0733643 145.963 0.0733643 146.546 0.0733643C145.983 1.02228 145.553 1.86402 144.996 2.61419C144.828 2.84217 144.299 2.90647 143.937 2.90647C137.624 2.924 131.314 2.91816 125.001 2.91816C115.786 2.91816 106.572 2.9279 97.3569 2.89867C96.5709 2.89672 96.1698 3.13054 95.795 3.78913C90.3435 13.3698 84.8454 22.9272 79.4121 32.5176C78.8874 33.4432 78.3404 33.8173 77.2384 33.7471C75.6319 33.6439 74.0133 33.7198 72.1779 33.7198C78.0386 23.4201 83.8163 13.2666 89.6851 2.95323C74.7568 2.95713 60.0026 2.95713 45.1736 2.95713Z" fill="black"/>
<path d="M158.974 0.0753253C155.721 5.35183 152.585 10.4393 149.338 15.7061C151.017 15.7061 152.486 15.7412 153.952 15.673C154.21 15.6613 154.507 15.254 154.684 14.9696C157.544 10.3439 160.405 5.7162 163.219 1.06516C163.658 0.336423 164.118 0.0110252 165.032 0.049995C166.883 0.131831 168.741 0.0753253 170.797 0.0753253C170.534 0.527374 170.339 0.876154 170.133 1.21714C163.68 11.8208 157.224 22.4225 150.786 33.0359C150.474 33.5503 150.134 33.751 149.514 33.7393C147.591 33.7023 145.669 33.7257 143.517 33.7257C146.568 28.5895 149.542 23.5858 152.638 18.3775C150.946 18.3775 149.479 18.3424 148.019 18.4106C147.757 18.4223 147.447 18.8159 147.275 19.0984C144.585 23.5565 141.883 28.0069 139.263 32.504C138.712 33.451 138.108 33.8192 136.982 33.753C135.28 33.6517 133.569 33.7277 131.676 33.7277C132.552 32.2682 133.331 30.955 134.122 29.6495C139.917 20.0668 145.721 10.488 151.493 0.891742C151.868 0.270174 152.257 0.0441495 152.992 0.0616859C154.909 0.10845 156.831 0.0753253 158.974 0.0753253Z" fill="black"/>
<path d="M40.4068 0.0947445C39.799 1.04755 39.3331 1.86982 38.7578 2.61804C38.5937 2.83237 38.1196 2.90641 37.7874 2.90836C34.3111 2.92785 30.8327 2.99799 27.3584 2.88888C25.521 2.83237 24.4108 3.565 23.5235 5.02247C20.2498 10.3925 16.9112 15.7236 13.6111 21.078C12.0128 23.6714 10.4427 26.2805 8.86665 28.8856C8.71471 29.137 8.5567 29.3961 8.47162 29.6708C8.21434 30.4892 8.58911 31.0328 9.47845 31.0621C10.6919 31.101 11.9094 31.0991 13.1229 31.0543C13.4005 31.0445 13.7833 30.8516 13.9251 30.6295C16.3095 26.902 18.6656 23.159 21.0236 19.4159C21.052 19.3711 21.0277 19.2932 21.0277 19.1451C20.0735 19.1451 19.1133 19.1451 17.9059 19.1451C18.4184 18.2371 18.8195 17.4811 19.2774 16.7582C19.3706 16.6101 19.6805 16.5166 19.8892 16.5166C23.0616 16.5108 26.2321 16.5244 29.4045 16.5361C29.4612 16.5361 29.5179 16.5945 29.6739 16.6803C29.0054 17.787 28.343 18.8957 27.6724 20.0005C25.0388 24.3398 22.3931 28.6732 19.7818 33.0261C19.4516 33.5776 19.0849 33.7724 18.4265 33.7685C13.5321 33.7412 8.63773 33.7549 3.74536 33.7549C1.69725 33.7549 0.556704 32.3753 1.06721 30.4191C1.24549 29.739 1.56962 29.0746 1.93629 28.4647C6.82057 20.32 11.7433 12.1987 16.6154 4.05017C18.0943 1.57754 20.343 0.211654 23.1893 0.137611C28.8535 -0.00852534 34.5238 0.0947445 40.4068 0.0947445Z" fill="black"/>
<path d="M26.5022 33.7511C27.1869 32.5781 27.7704 31.5669 28.366 30.5634C32.8248 23.05 37.2938 15.5445 41.7344 8.02135C42.2449 7.15817 42.9681 6.73925 43.9385 6.7334C47.8524 6.71197 51.7663 6.67495 55.6782 6.73535C58.2226 6.77432 59.1626 8.29024 57.9937 10.4433C56.8086 12.6256 55.5202 14.7553 54.2338 16.8831C53.6098 17.9158 52.4774 18.2412 51.3652 18.5393C50.2125 18.8471 50.1963 18.8959 50.7959 19.8506C51.503 20.9768 51.2761 22.0914 50.6663 23.1689C49.3292 25.5305 47.9334 27.8628 46.645 30.2477C46.0758 31.3019 45.7091 32.4573 45.1763 33.7472C43.5961 33.7472 41.6757 33.7804 39.7592 33.7336C38.8192 33.7102 38.882 32.9074 38.9489 32.3463C39.0157 31.789 39.3014 31.2337 39.583 30.7232C41.4346 27.3776 43.3125 24.0457 45.1783 20.708C45.782 19.6285 45.4822 19.2037 44.2383 19.0751C42.6805 18.9134 41.7162 19.3382 40.8977 20.7742C38.5539 24.8953 35.977 28.8935 33.5257 32.9581C33.1814 33.529 32.8208 33.7862 32.1097 33.7667C30.329 33.718 28.5422 33.7511 26.5022 33.7511ZM43.667 16.5031C44.5037 16.5031 45.1378 16.4369 45.7516 16.5168C47.2041 16.7038 48.134 16.0433 48.7883 14.8995C49.6311 13.4265 50.4738 11.9534 51.274 10.457C51.7177 9.62885 51.4422 9.18265 50.4941 9.02872C48.5554 8.71501 48.1056 8.9235 47.1251 10.5875C47.0259 10.757 46.9205 10.9226 46.8213 11.0902C45.8083 12.8302 44.7954 14.5702 43.667 16.5031Z" fill="black"/>
<path d="M95.6311 25.9688C94.8694 27.282 94.205 28.3985 93.5729 29.5325C93.0239 30.5146 93.3035 30.9374 94.446 31.0738C95.696 31.2238 96.5083 30.9491 97.1546 29.7254C98.8927 26.4344 100.825 23.2389 102.679 20.0044C102.821 19.755 102.938 19.4939 103.161 19.0516C102.59 19.0516 102.173 19.0614 101.755 19.0497C100.141 19.0088 98.5078 19.0828 96.9135 18.8821C95.3414 18.6834 94.7357 17.5552 95.1936 16.0919C95.3273 15.6613 95.5055 15.2326 95.7405 14.8468C97.0431 12.6898 98.3599 10.5387 99.6929 8.39729C100.388 7.28276 101.449 6.71575 102.794 6.7099C106.202 6.69431 109.609 6.69042 113.019 6.70795C114.688 6.71575 115.737 7.41526 115.869 8.61552C115.916 9.04809 115.863 9.5547 115.663 9.9327C115.083 11.0258 114.603 12.2923 113.691 13.0503C113.118 13.5257 111.834 13.2276 110.869 13.2432C109.765 13.2627 108.661 13.2471 107.355 13.2471C107.94 12.2806 108.457 11.4603 108.939 10.6205C109.543 9.57028 109.222 9.08511 107.989 8.96625C106.802 8.85129 106.001 9.12018 105.432 10.2717C104.551 12.0527 103.447 13.7303 102.442 15.4547C102.284 15.7275 102.158 16.0159 101.938 16.4562C103.595 16.4562 105.098 16.4562 106.601 16.4562C109.96 16.4582 110.983 18.0482 109.348 20.8423C107.134 24.6262 104.861 28.379 102.586 32.1279C101.966 33.1489 100.969 33.6945 99.7375 33.7023C96.2632 33.7276 92.7869 33.7608 89.3126 33.7023C86.681 33.6575 85.7552 32.0987 86.9626 29.8501C87.5805 28.7005 88.2693 27.5821 88.9743 26.4793C89.1242 26.2435 89.4787 25.9921 89.7461 25.9863C91.6261 25.9493 93.5121 25.9688 95.6311 25.9688Z" fill="black"/>
<path d="M130.927 13.2626C131.523 12.226 132.052 11.3336 132.552 10.4276C132.972 9.66768 132.739 9.16887 131.843 9.05975C131.112 8.97207 130.356 8.97402 129.623 9.03832C129.361 9.0617 129.045 9.34034 128.898 9.5839C124.822 16.2692 120.76 22.9603 116.71 29.6592C116.161 30.5672 116.459 31.0134 117.585 31.0718C120.176 31.2063 120.168 31.2024 121.505 29.0259C122.121 28.0224 122.549 26.6604 123.472 26.1558C124.396 25.6492 125.832 26.0057 127.046 25.9902C127.783 25.9824 128.521 25.9882 129.463 25.9882C128.973 26.8105 128.567 27.4983 128.156 28.1842C127.429 29.3903 126.683 30.5866 125.972 31.8006C125.227 33.0729 124.129 33.7296 122.597 33.7257C119.323 33.7179 116.048 33.7315 112.774 33.714C112.276 33.712 111.763 33.638 111.279 33.5133C109.875 33.1528 109.188 32.1415 109.774 30.8633C110.598 29.0649 111.633 27.3463 112.667 25.6453C116.139 19.9343 119.654 14.2505 123.14 8.54925C123.878 7.34508 124.984 6.74495 126.39 6.72936C129.562 6.69429 132.739 6.64947 135.909 6.76249C136.772 6.79366 137.738 7.22233 138.417 7.75037C138.794 8.04264 138.931 9.01494 138.733 9.51765C138.261 10.716 137.536 11.8247 136.879 12.9509C136.788 13.1068 136.509 13.2451 136.312 13.2471C134.57 13.2724 132.828 13.2626 130.927 13.2626Z" fill="black"/>
<path d="M75.7552 16.4408C75.1941 17.3098 74.7828 18.0464 74.2601 18.7011C74.0819 18.9232 73.6261 19.0303 73.2959 19.0362C71.6083 19.0693 69.9208 19.0226 68.2333 19.0752C67.8727 19.0869 67.3561 19.309 67.1941 19.5857C65.0791 23.2001 63.0148 26.8438 60.9444 30.4816C60.8694 30.6141 60.8532 30.7758 60.7702 31.0525C63.0654 31.0525 65.2675 31.0525 67.6316 31.0525C67.1313 31.9352 66.7342 32.6756 66.2905 33.3888C66.1913 33.5485 65.9299 33.7064 65.7436 33.7064C61.232 33.7239 56.7205 33.72 52.0145 33.72C53.0882 31.8592 54.0788 30.1406 55.0715 28.424C58.9408 21.7426 62.8365 15.073 66.6633 8.36822C67.3521 7.16016 68.2313 6.6594 69.6473 6.68083C73.4924 6.73539 77.3394 6.70032 81.387 6.70032C80.9656 7.45438 80.6476 8.11687 80.2303 8.71505C80.1087 8.89042 79.7076 8.94887 79.4321 8.95082C77.6088 8.97031 75.7856 8.93913 73.9644 8.982C73.6261 8.98979 73.1419 9.18074 72.9859 9.43599C71.6772 11.591 70.4293 13.7792 69.1652 15.9576C69.1044 16.0628 69.0679 16.1836 68.9626 16.4369C71.2437 16.4408 73.4052 16.4408 75.7552 16.4408Z" fill="black"/>
<path d="M43.6661 16.5031C44.7925 14.5702 45.8074 12.8302 46.8203 11.0922C46.9196 10.9226 47.025 10.757 47.1242 10.5894C48.1047 8.92544 48.5545 8.71695 50.4932 9.03065C51.4413 9.18459 51.7147 9.63079 51.2731 10.4589C50.4729 11.9534 49.6302 13.4264 48.7874 14.9014C48.1331 16.0452 47.2032 16.7057 45.7507 16.5187C45.1369 16.4369 44.5028 16.5031 43.6661 16.5031Z" fill="white"/>
</g>
<defs>
<clipPath id="clip0_17_914">
<rect width="169.852" height="33.7205" fill="white" transform="translate(0.945923 0.0480957)"/>
</clipPath>
</defs>
</svg>
