<svg width="126" height="74" viewBox="0 0 126 74" fill="none" xmlns="http://www.w3.org/2000/svg">
<g opacity="0.4" clip-path="url(#clip0_17_925)">
<path d="M125.583 69.3948C125.435 69.4045 125.261 69.3722 125.132 69.4336C122.244 70.8632 120.633 70.6627 119.157 67.7971C117.726 65.0189 116.936 61.9043 115.921 58.9191C115.809 58.586 115.995 58.0685 116.189 57.7192C119.005 52.6738 120.588 47.1983 121.687 41.5739C122.618 36.8132 123.382 32.0135 122.653 27.1396C122.457 25.8232 122.28 24.0509 120.788 23.8827C119.586 23.7468 118.171 24.5231 117.033 25.2023C116.26 25.6647 115.696 26.5994 115.222 27.4274C114.503 28.6823 113.82 29.9824 113.334 31.3408C110.172 40.1412 110.011 49.1744 111.597 58.2691C111.912 60.0899 110.839 60.6947 109.818 61.471C108.767 62.2698 107.565 62.5156 106.379 61.6812C104.416 60.3002 103.011 54.7664 103.869 52.496C105.332 48.6246 106.804 44.7467 108.003 40.7913C108.912 37.7964 109.276 34.6624 108.464 31.5414C108.097 30.128 107.381 28.9184 105.793 28.6176C104.188 28.3168 102.85 28.9734 102.048 30.2832C101.245 31.5931 100.517 33.0388 100.172 34.5233C98.6318 41.2085 98.6253 47.981 99.5084 54.747C99.7533 56.6228 98.9283 57.8357 97.781 59C96.898 59.8959 95.9119 59.7827 95.4478 58.6442C94.9096 57.3214 94.336 55.8628 94.3682 54.4785C94.4681 50.4616 94.8484 46.4512 95.1513 42.4407C95.2931 40.5681 95.5574 38.7052 95.6605 36.8293C95.7282 35.5971 94.9419 35.1249 93.7817 35.1863C92.2123 35.2704 91.3002 36.0887 91.0779 37.6476C90.5461 41.3799 90.1723 45.1413 89.4504 48.8348C88.938 51.4481 88.0647 54.0063 87.1172 56.4999C86.8723 57.1468 85.7218 57.8357 85.0225 57.7969C84.5037 57.7678 83.7045 56.6358 83.6303 55.9307C83.4209 53.9643 83.3177 51.9429 83.5465 49.9862C83.959 46.4609 84.6519 42.9679 85.2094 39.4588C85.4834 37.7381 84.1878 36.5609 82.5959 37.2498C81.874 37.5635 81.1714 38.4076 80.904 39.1677C80.4657 40.4193 80.1982 41.8003 80.195 43.1264C80.1853 46.1763 78.3323 48.1039 76.2923 50.2999C76.1795 49.1453 76.1634 48.2332 75.9926 47.3471C75.5382 44.9764 75.216 42.5539 74.4748 40.2738C73.7142 37.9322 72.1125 37.101 69.7987 37.8125C68.1003 38.3332 66.3279 39.1159 65.0066 40.2673C60.8945 43.8541 58.8545 48.5793 58.2616 53.9805C58.2036 54.4979 57.7363 54.9669 57.4591 55.4585C56.8307 55.0898 55.851 54.8569 55.648 54.3233C55.2581 53.3077 55.0969 52.0949 55.2258 51.0114C55.5288 48.5081 56.0154 46.0243 56.5213 43.5533C56.7115 42.6218 56.821 41.8133 55.8446 41.3378C54.8004 40.8301 53.9497 41.2085 53.3631 42.1367C53.0828 42.583 52.8862 43.1005 52.7444 43.6147C52.3834 44.9084 52.1965 46.2668 51.7164 47.5152C50.64 50.3096 49.554 53.1137 48.194 55.7722C47.8169 56.5064 46.428 57.1759 45.574 57.0983C44.2785 56.9786 44.098 55.5911 44.0368 54.4203C43.8337 50.6621 45.039 47.3018 47.0789 44.2357C49.1833 41.0726 52.0257 39.0448 55.967 38.896C56.3409 38.8831 56.705 38.6761 57.0756 38.5596C57.095 38.4238 57.1143 38.2847 57.1336 38.1489C56.5471 37.861 55.9864 37.4697 55.3676 37.2983C52.4995 36.5027 49.8923 37.2465 47.6719 39.0707C42.6285 43.2105 40.0374 48.6666 39.4703 55.1416C39.4155 55.7593 39.4477 56.6067 39.0771 56.9333C37.7204 58.13 36.3088 59.3396 34.7297 60.1902C32.9863 61.1281 31.4233 60.4683 30.6789 58.586C30.1536 57.26 30.0279 55.7787 29.7153 54.3653C29.4736 53.2754 29.8571 52.6447 30.869 52.0626C34.0498 50.2352 37.0468 48.1427 39.2447 45.1122C40.7239 43.0714 41.5166 40.8365 41.059 38.2847C40.3887 34.546 36.876 32.6927 33.6663 34.6947C31.9647 35.7556 30.4662 37.418 29.364 39.1256C27.0179 42.7577 26.0543 46.9201 25.6032 51.2055C25.5452 51.7488 25.4356 52.496 25.0714 52.7644C23.8372 53.6732 22.4772 54.4106 21.3364 55.1092C18.6036 52.4474 15.9481 50.0153 13.4699 47.4053C11.185 44.999 8.87436 42.5604 6.97299 39.8533C4.92982 36.9393 5.21342 33.718 7.15346 30.7457C9.10317 27.7541 12.7738 26.5477 16.2381 27.6441C19.145 28.5659 20.9851 31.3053 20.94 34.6074C20.9078 36.8035 19.6477 38.4238 18.4908 40.1153C18.2168 40.5131 18.1782 41.0759 18.0299 41.5642C18.5778 41.6613 19.1192 41.7971 19.6703 41.8392C19.9184 41.8586 20.1891 41.7195 20.4308 41.6063C23.4021 40.2026 25.4001 38.0195 25.6966 34.6268C25.9834 31.3505 24.5494 28.8634 21.8004 27.1881C17.9655 24.8497 13.8147 24.5069 9.53178 25.6001C1.45902 27.6603 -1.61217 34.8661 2.78676 41.9524C4.52699 44.7532 6.87631 47.1983 9.12572 49.6401C11.691 52.428 14.4528 55.0348 17.192 57.7807C15.0264 59.4205 13.0122 60.7724 11.2043 62.3636C9.28041 64.0616 7.3436 65.8242 5.79027 67.8489C3.70522 70.5624 4.63656 72.752 8.01713 73.2209C13.515 73.9842 18.4618 72.4706 22.6287 68.7836C24.4559 67.1665 25.355 64.9769 24.7588 62.5092C24.3238 60.7077 23.5632 58.9871 22.8994 57.0853C23.589 56.6358 24.4205 56.0924 25.3035 55.5167C25.7514 57.2567 26.0382 58.8997 26.599 60.4425C27.6818 63.4147 29.9215 65.158 32.6543 64.7699C34.2012 64.5499 35.7255 63.625 37.0823 62.742C38.2585 61.9787 39.1834 60.8306 40.2179 59.8538C42.1837 62.0887 44.3333 62.7808 46.6149 61.5745C47.8556 60.9179 48.99 59.9056 49.9149 58.8318C50.9687 57.606 51.7325 56.1345 52.4576 55.0219C53.1053 56.1248 53.5339 57.7969 54.5523 58.3241C55.5932 58.8642 57.211 58.2852 58.7965 58.185C60.1146 60.1902 61.4069 60.8597 63.7755 59.967C65.1774 59.4399 66.6985 58.599 67.5751 57.4443C69.0833 55.4618 70.1306 53.1266 71.3681 50.9371C71.5486 50.6169 71.6904 50.2773 72.0288 49.5851C72.1609 50.7786 72.2092 51.5322 72.3381 52.2728C72.625 53.919 72.235 55.2386 71.0072 56.487C69.6214 57.8971 68.3195 59.4657 67.3172 61.1637C66.0507 63.3177 64.8712 65.5914 64.1204 67.9621C63.3759 70.3231 64.2203 72.1666 65.78 73.0916C67.459 74.0877 70.1306 74.0101 71.6292 72.4318C72.9923 70.9925 74.1815 69.2299 74.9227 67.3928C76.4148 63.6896 76.6178 59.6921 76.2794 55.769C76.041 52.9908 77.9166 51.8976 79.2604 50.3775C79.7696 53.1105 79.9952 55.8272 80.8169 58.3467C81.8418 61.4807 85.1643 62.2472 87.7167 60.1288C88.6029 59.3946 89.27 58.3661 89.9274 57.3958C90.3754 56.736 90.6299 55.9469 90.9554 55.258C91.629 57.1759 92.093 59.1391 92.9792 60.8856C94.3553 63.5926 96.7014 63.8417 98.8993 61.7297C99.46 61.1896 99.966 60.5912 100.533 59.98C101.648 62.6126 102.441 65.4038 105.415 66.1962C108.545 67.0274 110.385 64.5823 112.521 62.7323C112.737 63.3759 112.84 63.9063 113.082 64.3591C114.342 66.7104 115.419 69.2073 116.988 71.3321C118.554 73.4538 121.326 73.8613 123.546 72.8652C125.157 72.1375 125.937 70.8308 125.583 69.3948Z" fill="white"/>
<path d="M29.1251 16.0881C29.2024 16.2822 29.2797 16.4795 29.3571 16.6735C30.543 16.376 31.7741 16.1949 32.9085 15.7582C36.9464 14.1929 41.0972 13.2323 45.4253 12.9574C49.4504 12.7019 55.264 15.9943 57.2492 19.8237C55.1448 21.3826 52.8922 22.2493 50.2012 21.6284C49.6598 21.5022 49.0379 21.7222 48.4546 21.7804C48.7317 22.3108 48.8864 22.9835 49.3053 23.349C51.7868 25.5127 54.7033 26.0884 57.8808 25.4803C61.8254 24.7268 65.3928 23.0094 68.9217 21.1562C70.1108 20.532 71.5094 20.3023 72.8114 19.8948C72.8694 20.0727 72.9274 20.2506 72.9854 20.4252C72.7598 20.532 72.4859 20.5902 72.3151 20.7551C72.0122 21.0462 71.7737 21.4052 71.5062 21.7351C71.9155 21.913 72.3441 22.2784 72.7341 22.2396C76.5207 21.8645 79.5758 23.2034 82.3505 25.7747C85.3282 28.5335 88.7603 30.6681 92.8048 31.5639C93.2495 31.6642 93.7748 31.4152 94.2614 31.3246C94.1196 30.8945 94.0809 30.3737 93.8135 30.0439C91.3771 27.0392 88.9086 24.0605 86.4336 21.085C85.2283 19.6328 83.6105 18.9601 81.7801 18.8405C78.9441 18.6529 76.1017 18.5785 73.269 18.3553C72.5246 18.2971 71.8027 17.8831 71.0744 17.6179C69.911 17.1942 68.7444 16.3857 67.5907 16.4051C65.077 16.4471 62.9597 15.6903 61.0229 14.2058C59.9562 13.3875 58.8895 12.5725 57.855 11.7154C55.4993 9.75872 52.9405 8.67525 49.8435 9.71668C49.5954 9.80077 49.3118 9.76842 49.0443 9.81047C42.6602 10.7743 36.3631 12.0518 30.5753 15.1114C30.0629 15.3701 29.6085 15.755 29.1251 16.0881Z" fill="white"/>
<path d="M63.1918 0.0753984C58.6866 -0.0766107 53.8397 1.67634 49.5664 5.06906C48.9058 5.593 48.3096 6.24955 47.8359 6.94815C47.6425 7.236 47.8584 7.79875 47.8874 8.23537C48.2677 8.15775 48.7221 8.18686 49.0121 7.97987C49.9757 7.30068 50.862 6.51153 51.8062 5.8097C60.0981 -0.35152 74.4518 0.224173 81.0776 11.6378C82.0057 13.2355 82.4407 15.1178 83.1626 16.8417C83.3205 17.2201 83.7395 17.4853 84.0359 17.8022C84.2648 17.3915 84.7095 16.9646 84.6837 16.5668C84.6192 15.6127 84.4194 14.6489 84.1294 13.7336C81.4901 5.4798 73.6074 0.0980381 63.1918 0.0753984Z" fill="white"/>
<path d="M41.2007 21.7932C41.4424 26.1497 42.9925 29.9791 44.852 33.6952C45.1162 34.2224 46.2248 34.8337 46.6566 34.6655C47.8361 34.2062 47.0208 33.3103 46.6599 32.6861C45.0743 29.9305 44.1397 26.9583 44.0721 23.8081C44.0173 21.2563 44.3814 18.6948 44.4813 16.1365C44.5007 15.6191 44.1816 15.0886 44.0173 14.5647C43.6209 14.914 42.9957 15.1954 42.8636 15.6288C42.2352 17.6599 41.7421 19.7362 41.2007 21.7932Z" fill="white"/>
<path d="M84.8035 28.7954C84.2621 28.5626 83.8528 28.2197 83.5145 28.2812C83.0794 28.3588 82.5509 28.6661 82.3253 29.038C81.4133 30.5419 80.5754 32.0976 79.7665 33.6629C79.5506 34.0769 79.5313 34.5912 79.4217 35.0601C80.0082 35.031 80.9267 35.2251 81.1233 34.934C82.3318 33.1358 83.3759 31.2276 84.8035 28.7954Z" fill="white"/>
<path d="M125.582 69.3948C125.937 70.8276 125.157 72.1375 123.539 72.8619C121.322 73.8581 118.547 73.4506 116.981 71.3289C115.412 69.204 114.335 66.7039 113.075 64.3559C112.834 63.9031 112.731 63.3759 112.515 62.7291C110.378 64.579 108.538 67.0274 105.409 66.1929C102.431 65.4005 101.641 62.6094 100.526 59.9767C99.9591 60.588 99.4532 61.1863 98.8924 61.7264C96.6978 63.8416 94.3485 63.5894 92.9724 60.8823C92.0862 59.1358 91.6221 57.1726 90.9486 55.2547C90.6263 55.9436 90.3685 56.7328 89.9206 57.3926C89.2631 58.3628 88.5928 59.3913 87.7098 60.1255C85.1575 62.2439 81.8349 61.4774 80.8101 58.3434C79.9851 55.824 79.7628 53.104 79.2536 50.3743C77.9097 51.8944 76.0309 52.9875 76.2726 55.7658C76.611 59.6889 76.4047 63.6864 74.9159 67.3896C74.1779 69.2234 72.9855 70.9893 71.6223 72.4285C70.1238 74.0101 67.4522 74.0845 65.7732 73.0883C64.2134 72.1633 63.3691 70.3198 64.1135 67.9588C64.8612 65.5881 66.0407 63.3145 67.3104 61.1605C68.3127 59.4625 69.6146 57.8939 71.0004 56.4838C72.2282 55.2353 72.6181 53.9158 72.3313 52.2695C72.2024 51.5321 72.1573 50.7786 72.0219 49.5819C71.6868 50.274 71.5418 50.6168 71.3613 50.9338C70.127 53.1234 69.0764 55.4585 67.5682 57.4411C66.6917 58.5925 65.1706 59.4366 63.7687 59.9638C61.4001 60.8564 60.111 60.187 58.7897 58.1817C57.2042 58.2852 55.5864 58.8609 54.5455 58.3208C53.5271 57.7936 53.0985 56.1215 52.4508 55.0186C51.7257 56.1312 50.9619 57.606 49.9081 58.8286C48.9832 59.9023 47.852 60.9179 46.6081 61.5712C44.3264 62.7776 42.1769 62.0855 40.2111 59.8506C39.1799 60.8241 38.2517 61.9755 37.0755 62.7388C35.7187 63.6217 34.1944 64.5467 32.6475 64.7666C29.9179 65.1547 27.6782 63.4115 26.5922 60.4392C26.0282 58.8965 25.7446 57.2535 25.2967 55.5135C24.4136 56.0892 23.5822 56.6325 22.8926 57.0821C23.5564 58.9806 24.317 60.7044 24.752 62.5059C25.3482 64.9736 24.4491 67.1632 22.6218 68.7803C18.455 72.4674 13.5082 73.981 8.01033 73.2177C4.62976 72.7487 3.69841 70.5592 5.78347 67.8456C7.34001 65.821 9.27361 64.0583 11.1975 62.3604C13.0022 60.7691 15.0196 59.4172 17.1852 57.7775C14.446 55.0316 11.6842 52.4248 9.11892 49.6369C6.86951 47.1918 4.51697 44.7467 2.77996 41.9491C-1.61252 34.8661 1.45867 27.6602 9.53142 25.5968C13.8143 24.5036 17.9651 24.8465 21.8001 27.1848C24.549 28.8601 25.9831 31.3473 25.6963 34.6236C25.3998 38.0163 23.4017 40.2026 20.4304 41.603C20.192 41.7162 19.918 41.8553 19.6699 41.8359C19.1188 41.7939 18.5742 41.658 18.0296 41.561C18.1778 41.0726 18.2165 40.5131 18.4904 40.1121C19.6506 38.4238 20.9074 36.8002 20.9396 34.6041C20.9847 31.3052 19.1446 28.5658 16.2281 27.6441C12.767 26.5477 9.09636 27.7573 7.14343 30.7457C5.20339 33.718 4.9198 36.9393 6.96296 39.8533C8.86111 42.5604 11.1718 44.999 13.4598 47.4053C15.9348 50.012 18.5935 52.4474 21.3263 55.1092C22.4704 54.4106 23.8271 53.6732 25.0614 52.7644C25.4256 52.4959 25.5351 51.7521 25.5931 51.2055C26.0443 46.9234 27.0111 42.7609 29.354 39.1256C30.4561 37.4179 31.9547 35.7555 33.6562 34.6947C36.866 32.6927 40.3819 34.5427 41.049 38.2847C41.5066 40.8365 40.7138 43.0714 39.2346 45.1122C37.0336 48.1459 34.0365 50.2384 30.859 52.0626C29.847 52.6447 29.4668 53.2754 29.7052 54.3653C30.0178 55.7755 30.1435 57.26 30.6688 58.586C31.4133 60.4683 32.9795 61.1249 34.7197 60.1902C36.2988 59.3396 37.7103 58.13 39.0671 56.9333C39.4377 56.6067 39.4054 55.7593 39.4602 55.1415C40.0274 48.6666 42.6184 43.2104 47.6619 39.0706C49.8823 37.2465 52.4894 36.4994 55.3576 37.2983C55.9763 37.4697 56.5371 37.8578 57.1236 38.1489C57.1043 38.2847 57.0849 38.4238 57.0656 38.5596C56.695 38.6761 56.3308 38.8798 55.957 38.896C52.0157 39.048 49.1733 41.0726 47.0689 44.2357C45.029 47.3018 43.8237 50.6621 44.0267 54.4203C44.088 55.5879 44.2684 56.9786 45.5639 57.0983C46.4179 57.1759 47.8101 56.5064 48.184 55.7722C49.5439 53.1137 50.6299 50.3096 51.7063 47.5152C52.1865 46.27 52.3734 44.9117 52.7343 43.6147C52.8761 43.1037 53.0727 42.583 53.3531 42.1367C53.9396 41.2085 54.7904 40.8268 55.8345 41.3378C56.8142 41.8133 56.7014 42.6251 56.5113 43.5533C56.0053 46.0242 55.5155 48.5081 55.2158 51.0114C55.0837 52.0949 55.248 53.3077 55.638 54.3233C55.841 54.8569 56.8207 55.0898 57.4491 55.4585C57.7262 54.9669 58.1967 54.4979 58.2515 53.9805C58.8445 48.576 60.8844 43.8508 64.9966 40.2673C66.3178 39.1159 68.0903 38.3332 69.7886 37.8125C72.1057 37.101 73.7042 37.9289 74.4647 40.2738C75.2059 42.5539 75.5282 44.9763 75.9826 47.347C76.1502 48.23 76.1695 49.142 76.2823 50.2999C78.3255 48.1039 80.1785 46.1795 80.1849 43.1264C80.1881 41.8003 80.4556 40.4193 80.8939 39.1677C81.1614 38.4076 81.8639 37.5635 82.5858 37.2498C84.1778 36.5609 85.4733 37.7381 85.1994 39.4587C84.6419 42.9679 83.949 46.4609 83.5365 49.9862C83.3077 51.9429 83.4108 53.9643 83.6203 55.9307C83.6944 56.6358 84.4936 57.771 85.0125 57.7969C85.7086 57.8357 86.8591 57.1468 87.1072 56.4999C88.0547 54.0063 88.928 51.448 89.4404 48.8348C90.1623 45.1413 90.5361 41.3766 91.0678 37.6476C91.2902 36.0887 92.2022 35.2704 93.7716 35.1863C94.9318 35.1249 95.7181 35.5971 95.6505 36.8293C95.5505 38.7019 95.2831 40.5681 95.1413 42.4407C94.8416 46.4512 94.4581 50.4616 94.3582 54.4785C94.3227 55.8628 94.8963 57.3214 95.4378 58.6442C95.9018 59.7827 96.888 59.8959 97.771 59C98.915 57.8389 99.7432 56.6228 99.4983 54.747C98.6153 47.981 98.6217 41.2085 100.162 34.5233C100.504 33.0388 101.235 31.5931 102.038 30.2832C102.84 28.9733 104.178 28.3136 105.782 28.6176C107.371 28.9184 108.083 30.128 108.454 31.5413C109.269 34.6624 108.902 37.7996 107.993 40.7912C106.794 44.7467 105.322 48.6278 103.859 52.4959C103.001 54.7631 104.406 60.2969 106.369 61.6812C107.555 62.5156 108.757 62.2698 109.808 61.4709C110.829 60.6947 111.902 60.0899 111.586 58.2691C110.001 49.1712 110.162 40.1412 113.323 31.3408C113.81 29.9824 114.493 28.6823 115.212 27.4274C115.686 26.5994 116.25 25.6647 117.023 25.2022C118.161 24.523 119.579 23.7501 120.777 23.8827C122.27 24.0508 122.447 25.8232 122.643 27.1395C123.372 32.0135 122.608 36.8131 121.677 41.5739C120.578 47.195 118.999 52.6738 116.179 57.7192C115.985 58.0685 115.798 58.5828 115.911 58.9191C116.923 61.9043 117.713 65.0189 119.147 67.7971C120.626 70.6626 122.234 70.8632 125.122 69.4336C125.257 69.3722 125.434 69.4078 125.582 69.3948ZM115.45 54.375C119.002 45.2124 121.055 36.1889 120.494 26.3342C116.578 28.9475 113.427 47.2177 115.45 54.375ZM71.3258 43.0584C71.1679 42.6121 71.0906 41.4413 70.5621 41.1729C70.0239 40.9012 69.012 41.4575 68.2579 41.7745C67.8357 41.9523 67.4683 42.3372 67.1557 42.6994C64.2392 46.076 62.7697 50.0573 62.5183 54.4688C62.4764 55.1804 62.9953 56.3123 63.5528 56.5549C64.0813 56.7813 65.2415 56.3059 65.7088 55.7722C68.7961 52.2501 70.6394 48.1265 71.3258 43.0584ZM18.5387 60.0964C17.5977 60.8015 16.6793 61.3642 15.9058 62.0854C14.1882 63.6832 12.4769 65.2971 10.9107 67.0371C10.4595 67.5384 10.1179 68.8094 10.408 69.1587C10.8463 69.6859 11.9613 70.0546 12.6445 69.8897C14.2719 69.4983 15.9928 69.0164 17.3593 68.1011C20.2468 66.1638 20.6077 63.2789 18.5387 60.0964ZM29.8374 50.0185C33.0536 47.8354 35.8508 45.8852 37.3719 42.6315C38.2678 40.7104 38.0745 38.8281 37.0013 38.2103C35.8605 37.5538 34.2524 38.2685 33.0214 40.0894C31.0845 42.9517 30.3466 46.2151 29.8374 50.0185ZM102.837 48.0618C103.034 48.1006 103.233 48.1427 103.43 48.1815C104.284 44.944 105.244 41.7259 105.953 38.4561C106.337 36.6935 106.401 34.8338 106.379 33.0226C106.372 32.3725 105.689 31.7289 105.315 31.0821C104.848 31.6092 104.136 32.062 103.949 32.6765C102.402 37.722 102.737 42.9032 102.837 48.0618ZM72.4699 57.5478C69.6082 60.5718 67.8293 63.6411 67.0172 67.2247C66.8012 68.1852 66.5595 69.5759 67.826 69.8088C68.5608 69.9446 69.5018 69.0423 70.3204 68.5539C70.5234 68.4343 70.6362 68.1238 70.7458 67.8844C72.1863 64.744 72.4441 61.4063 72.4699 57.5478Z" fill="black"/>
<path d="M29.1251 16.088C29.6085 15.7549 30.0629 15.3732 30.5753 15.1016C36.3599 12.042 42.657 10.7677 49.0443 9.80066C49.3086 9.76185 49.5922 9.79095 49.8435 9.70686C52.9405 8.66867 55.4993 9.74891 57.855 11.7056C58.8895 12.5627 59.9562 13.3777 61.0229 14.196C62.9597 15.6837 65.077 16.4373 67.5907 16.3953C68.7444 16.3759 69.911 17.1844 71.0744 17.6081C71.8027 17.8733 72.5214 18.2873 73.269 18.3455C76.1017 18.5687 78.9441 18.6431 81.7801 18.8306C83.6105 18.9503 85.2283 19.623 86.4336 21.0752C88.9053 24.0507 91.3771 27.0294 93.8135 30.034C94.0809 30.3639 94.1164 30.8814 94.2614 31.3148C93.7748 31.4021 93.2527 31.6512 92.8048 31.5541C88.7603 30.6583 85.3282 28.5269 82.3505 25.7648C79.5758 23.1936 76.5207 21.8579 72.7341 22.2298C72.3441 22.2686 71.9155 21.9032 71.5062 21.7253C71.7737 21.3954 72.0122 21.0396 72.3151 20.7453C72.4859 20.5804 72.7598 20.5222 72.9854 20.4154C72.9274 20.2375 72.8694 20.0597 72.8114 19.885C71.5094 20.2958 70.1108 20.5222 68.9217 21.1464C65.3928 22.9996 61.8286 24.717 57.8808 25.4705C54.7033 26.0786 51.7868 25.5029 49.3053 23.3392C48.8864 22.9737 48.7317 22.301 48.4546 21.7706C49.0379 21.7124 49.6598 21.4924 50.2012 21.6186C52.8922 22.2395 55.1416 21.376 57.2492 19.8139C55.264 15.9878 49.4504 12.6953 45.4253 12.9476C41.1005 13.2225 36.9464 14.183 32.9085 15.7484C31.7773 16.1883 30.543 16.3662 29.3571 16.6637C29.2797 16.4761 29.2024 16.2821 29.1251 16.088Z" fill="black"/>
<path d="M63.1918 0.075398C73.6075 0.0980376 81.4901 5.4798 84.1294 13.74C84.4227 14.6521 84.6193 15.6191 84.6837 16.5732C84.7095 16.9678 84.268 17.3947 84.036 17.8087C83.7363 17.4918 83.3205 17.2233 83.1626 16.8481C82.4408 15.1243 82.0057 13.242 81.0776 11.6443C74.4518 0.227407 60.0981 -0.348287 51.8062 5.81616C50.8587 6.52123 49.9725 7.30715 49.0121 7.98634C48.7221 8.19009 48.2677 8.16099 47.8874 8.24184C47.8584 7.80522 47.6425 7.23923 47.8359 6.95462C48.3096 6.25602 48.9026 5.59947 49.5664 5.07553C53.8397 1.67634 58.6866 -0.0766111 63.1918 0.075398Z" fill="black"/>
<path d="M41.2007 21.7933C41.7421 19.7331 42.2352 17.6599 42.8636 15.6256C42.9957 15.1922 43.6209 14.9108 44.0173 14.5615C44.1816 15.0855 44.5007 15.6159 44.4813 16.1334C44.3782 18.6916 44.0173 21.2532 44.0721 23.805C44.1397 26.9551 45.0743 29.9274 46.6599 32.6829C47.0208 33.3072 47.8361 34.203 46.6566 34.6623C46.2248 34.8305 45.1162 34.2192 44.852 33.692C42.9925 29.9824 41.4424 26.1498 41.2007 21.7933Z" fill="black"/>
<path d="M84.8035 28.7953C83.3759 31.2274 82.3318 33.1356 81.1233 34.9339C80.9267 35.2282 80.005 35.0309 79.4217 35.06C79.5313 34.591 79.5506 34.0768 79.7665 33.6628C80.5754 32.0975 81.4133 30.545 82.3253 29.0379C82.5509 28.6659 83.0794 28.3587 83.5145 28.2811C83.8528 28.2164 84.2621 28.5592 84.8035 28.7953Z" fill="black"/>
<path d="M115.451 54.3748C113.427 47.2174 116.579 28.9472 120.494 26.334C121.055 36.1887 119.002 45.2122 115.451 54.3748Z" fill="white"/>
<path d="M71.3266 43.0583C70.6402 48.1296 68.7968 52.2532 65.7128 55.7721C65.2455 56.3057 64.0821 56.7844 63.5568 56.5548C62.9993 56.3122 62.4804 55.1802 62.5223 54.4687C62.7737 50.0572 64.2432 46.0726 67.1597 42.6993C67.4723 42.3371 67.8365 41.9522 68.2619 41.7743C69.016 41.4574 70.0279 40.9011 70.5661 41.1728C71.0946 41.438 71.1687 42.612 71.3266 43.0583Z" fill="white"/>
<path d="M18.5393 60.0963C20.6114 63.2788 20.2505 66.1637 17.3598 68.1011C15.9934 69.0196 14.2725 69.4982 12.645 69.8896C11.9618 70.0545 10.8436 69.6858 10.4085 69.1587C10.1185 68.8094 10.4601 67.5383 10.9112 67.037C12.4807 65.297 14.1887 63.6831 15.9064 62.0854C16.6798 61.3641 17.595 60.8014 18.5393 60.0963Z" fill="white"/>
<path d="M29.8373 50.0183C30.3465 46.2149 31.0845 42.9515 33.0213 40.0892C34.2524 38.2716 35.8605 37.5568 37.0013 38.2101C38.0744 38.8279 38.271 40.7102 37.3719 42.6313C35.8508 45.885 33.0535 47.832 29.8373 50.0183Z" fill="white"/>
<path d="M102.837 48.0617C102.737 42.9031 102.402 37.7219 103.946 32.6732C104.133 32.0587 104.845 31.6059 105.312 31.0787C105.686 31.7256 106.369 32.3692 106.375 33.0193C106.398 34.8304 106.334 36.6901 105.95 38.4528C105.241 41.7226 104.281 44.9407 103.427 48.1781C103.23 48.1426 103.034 48.1005 102.837 48.0617Z" fill="white"/>
<path d="M72.4697 57.5477C72.4439 61.4062 72.1861 64.7439 70.7456 67.8843C70.636 68.1269 70.5232 68.4342 70.3202 68.5538C69.5016 69.0422 68.5606 69.9446 67.8259 69.8087C66.5594 69.5726 66.8011 68.1819 67.017 67.2246C67.8291 63.641 69.608 60.5717 72.4697 57.5477Z" fill="white"/>
</g>
<defs>
<clipPath id="clip0_17_925">
<rect width="124.891" height="73.6856" fill="white" transform="translate(0.775818 0.0656738)"/>
</clipPath>
</defs>
</svg>
