<svg width="137" height="75" viewBox="0 0 137 75" fill="none" xmlns="http://www.w3.org/2000/svg">
<g opacity="0.4" clip-path="url(#clip0_17_886)">
<path d="M136.275 75C90.8915 75 45.5145 75 0.143555 75C0.143555 50.0154 0.143555 25.0367 0.143555 0.0655518C45.5266 0.0655518 90.9036 0.0655518 136.275 0.0655518C136.275 25.0502 136.275 50.0289 136.275 75ZM50.1868 19.2683C49.5712 19.4286 49.0237 19.6579 48.4625 19.6999C46.5824 19.8423 44.6977 19.9547 42.8131 20.0101C37.7445 20.1585 33.603 23.1244 31.9301 27.8618C31.2162 29.882 30.8956 31.9742 30.8638 34.1083C30.8335 36.0806 30.8698 38.0558 30.8441 40.0281C30.8229 41.7216 29.6628 42.9461 28.1291 42.9506C26.4622 42.9551 25.287 41.7741 25.2476 40.0341C25.2295 39.2353 25.2446 38.435 25.2461 37.6362C25.2507 30.8666 25.2567 24.097 25.2597 17.3275C25.2597 16.8674 25.2038 16.4657 25.9011 16.3983C28.1306 16.1825 30.3662 15.9711 32.5745 15.6145C34.7027 15.2713 36.8641 14.9341 38.9001 14.2656C42.1112 13.2106 43.5981 9.94042 43.1504 7.07942C41.9706 7.31322 40.7923 7.55301 39.6125 7.78081C30.9409 9.45185 22.1862 10.3735 13.3528 10.5864C11.6149 10.6283 9.86482 10.5714 8.13898 10.7422C5.67501 10.985 3.74195 12.1795 2.95693 14.5939C2.23997 16.8029 2.56064 18.9401 4.41504 20.5631C6.36474 22.2716 8.66838 22.5144 11.1112 21.9045C11.025 21.831 10.9282 21.8145 10.8329 21.7876C9.36114 21.3724 8.69409 20.4612 8.87863 19.1154C9.0435 17.9105 9.88297 17.278 11.3683 17.23C13.56 17.1596 15.7517 17.0832 17.9434 17.0157C18.1824 17.0082 18.4244 17.0352 18.6801 17.0472C18.7012 17.272 18.7285 17.4174 18.7285 17.5643C18.7285 26.0573 18.7406 34.5504 18.7164 43.0435C18.7073 46.3346 17.6122 49.2076 15.121 51.4781C14.7716 51.7958 14.4116 52.1031 14.0274 52.4418C14.3768 52.8494 14.7005 53.2271 15.0166 53.5943C15.0983 53.5718 15.1588 53.5718 15.1936 53.5433C18.4532 50.8322 22.3193 49.6242 26.4471 49.0203C28.0111 48.791 29.5872 48.5482 31.1058 48.127C32.7394 47.6729 34.0402 46.6179 35.1307 45.302C37.1969 46.5399 39.3871 47.063 41.7467 46.7318C44.0927 46.4021 46.0802 45.359 47.6775 43.6265C49.6045 44.9273 51.6449 45.5058 53.8941 45.314C56.1479 45.1222 58.0219 44.133 59.6192 42.5744C60.9714 43.5695 62.3464 44.3369 64.0041 44.5856C65.6604 44.8344 67.2244 44.4702 68.8504 44.0491C68.9578 46.7198 68.3134 49.0532 66.701 51.075C65.1733 52.9933 63.2569 54.2207 60.678 54.0634C60.0185 54.0229 59.3681 53.846 58.6088 53.7142C58.9098 54.0768 59.1397 54.4006 59.4135 54.6793C61.8351 57.1402 65.8827 57.7426 69.2179 56.1345C72.3051 54.6463 73.9356 52.0116 74.8235 48.8809C75.2274 47.4541 75.3575 45.9509 75.6252 44.4148C78.5822 45.2765 81.3578 44.7565 83.7673 42.7348C87.7423 46.2507 91.8656 46.6044 96.2052 43.5246C96.3458 43.6669 96.4668 43.7928 96.5894 43.9142C96.733 44.0551 96.8737 44.1975 97.0235 44.3324C99.5026 46.5579 102.379 47.2038 105.583 46.3646C108.288 45.6557 110.124 43.8648 111.414 41.4848C112.506 39.4736 112.999 37.29 113.116 35.021C113.175 33.8745 113.17 32.725 113.235 31.5785C113.278 30.8262 113.684 30.2627 114.348 29.903C115.979 29.0202 117.73 30.1443 117.738 32.115C117.752 35.6624 117.737 39.2098 117.709 42.7557C117.694 44.71 116.803 45.6242 114.832 45.7846C114.711 45.7951 114.59 45.8161 114.436 45.837C114.419 46.0274 114.397 46.1967 114.392 46.3676C114.385 46.6373 114.391 46.9086 114.391 47.2458C118.835 47.7239 123.091 48.7235 127.121 50.5384C127.757 49.1806 127.757 49.1806 126.706 48.3039C125.141 46.997 124.387 45.2735 124.357 43.3013C124.292 38.9311 124.272 34.5579 124.339 30.1877C124.38 27.5665 127.207 25.9764 129.581 27.1379C130.023 27.3537 130.433 27.631 130.885 27.8962C131.871 26.2791 132.844 24.6845 133.805 23.1079C131.347 20.5107 127.803 19.8602 124.64 21.4114C124.268 21.5942 124.088 21.5238 123.808 21.263C122.333 19.8872 120.255 19.7598 118.629 20.9753C118.137 21.344 117.758 21.8625 117.337 22.3226C116.933 22.7662 116.585 23.2698 116.139 23.6624C114.976 24.689 113.509 24.7954 112.257 23.8752C111.146 23.0585 110.145 22.0978 109.06 21.2465C106.046 18.8786 102.756 18.2027 99.1849 19.8767C96.5969 21.0892 95.0844 23.2593 94.1027 25.843C93.3101 27.9307 93.1074 30.1113 93.0878 32.3174C93.0726 33.9404 93.1256 35.5665 93.0515 37.1866C92.9743 38.8606 91.4633 39.8483 89.8433 39.3687C88.7618 39.0495 88.1432 38.1113 88.1432 36.7535C88.1402 26.6358 88.1417 16.5197 88.1417 6.40201C88.1417 6.10977 88.1417 5.81752 88.1417 5.44735C85.1982 5.44735 82.3395 5.44735 79.4595 5.44735C79.4595 5.94641 79.4595 6.42899 79.4595 6.90557C81.1249 7.1079 81.5726 7.61445 81.5741 9.25852C81.5756 15.4541 81.5741 21.6482 81.5741 27.8438C81.5741 30.3661 81.565 32.8899 81.5786 35.4122C81.5832 36.2424 81.4017 36.9963 80.8405 37.6302C79.9995 38.5819 78.6412 38.9386 77.4735 38.5219C76.2574 38.0873 75.4527 36.9768 75.4497 35.6415C75.4391 30.5954 75.4452 25.5493 75.4452 20.5032C75.4452 20.2109 75.4452 19.9187 75.4452 19.6175C73.2111 19.6175 71.0648 19.6175 68.864 19.6175C68.864 19.9786 68.864 20.2754 68.864 20.5721C68.864 25.4189 68.864 30.2642 68.8625 35.1109C68.8625 35.4346 68.867 35.7613 68.8338 36.0836C68.7037 37.317 67.967 38.0678 66.8281 38.4575C65.8177 38.8037 64.6939 38.456 63.9572 37.6287C63.384 36.9873 63.2418 36.2169 63.2433 35.4002C63.2509 32.6021 63.2675 29.8041 63.2645 27.0075C63.263 25.5343 63.325 24.0536 63.1889 22.5924C62.9862 20.4253 60.802 18.7827 58.5604 18.9775C56.3127 19.1723 54.599 21.0697 54.6822 23.2683C56.0389 22.7992 56.6984 23.1319 56.703 24.3398C56.7166 28.2124 56.7151 32.0836 56.7015 35.9562C56.6984 37.0397 56.2704 37.9599 55.3749 38.6044C54.3025 39.3747 53.1257 39.4766 51.952 38.8756C50.7752 38.2732 50.1989 37.251 50.1959 35.9457C50.1838 31.6235 50.1868 27.3027 50.1853 22.9805C50.1868 21.7591 50.1868 20.5392 50.1868 19.2683ZM17.535 68.9244C17.5668 69.0038 17.5971 69.0832 17.6288 69.1627C18.491 68.5662 19.3199 68.9154 20.1548 69.1417C20.6388 69.2736 21.1334 69.3695 21.6129 69.5148C22.3541 69.7382 22.7232 69.2166 23.1194 68.9618C22.0077 68.6996 20.9035 68.4373 19.7978 68.1765C22.5779 67.1829 23.543 65.9749 23.2404 63.7524C23.009 62.0484 21.8156 61.1462 19.7192 61.0892C17.8345 61.0398 16.4823 62.0439 16.1465 63.7419C15.7351 65.8236 16.5231 67.09 18.8162 67.9502C18.373 68.2889 17.954 68.6066 17.535 68.9244ZM116.661 64.2664C117.209 65.1477 117.727 65.9674 118.23 66.7977C118.815 67.7659 119.305 67.9352 120.411 67.5725C119.67 66.5399 118.915 65.4879 118.136 64.4028C118.447 64.1915 118.661 64.0671 118.85 63.9127C119.411 63.4541 119.739 62.8846 119.529 62.1443C119.325 61.4264 118.75 61.2106 118.069 61.2091C116.787 61.2061 115.506 61.2166 114.223 61.2316C114.176 61.2316 114.131 61.323 114.016 61.4429C115.12 61.5493 114.897 62.3481 114.91 62.9955C114.928 63.9922 114.922 64.9918 114.878 65.9869C114.851 66.5999 115.102 67.3867 114.112 67.5725C115.085 67.5725 116.056 67.5725 117.029 67.5725C117.089 67.5051 117.15 67.4377 117.209 67.3717C116.154 67.4302 116.307 66.7872 116.3 66.2447C116.291 65.6467 116.291 65.0472 116.289 64.4493C116.288 63.5351 116.289 62.6209 116.289 61.7292C117.485 61.5583 118.059 61.852 118.163 62.6029C118.292 63.5426 117.783 64.1211 116.661 64.2664ZM80.839 63.087C80.895 62.8532 80.9328 62.6209 81.0069 62.3976C81.2353 61.7097 80.9343 61.32 80.2672 61.2795C79.2221 61.2166 78.1497 61.0952 77.1302 61.2571C75.5662 61.5058 74.6118 62.7468 74.5709 64.2499C74.5225 66.0169 75.3756 67.2338 76.9668 67.7134C78.313 68.1196 79.6093 67.8783 80.8844 67.4407C81.0326 67.3897 81.1642 67.1289 81.1975 66.9461C81.3094 66.3526 81.3714 65.7516 81.4455 65.2076C80.662 65.2076 79.7409 65.2076 78.8197 65.2076C78.9831 65.4264 79.1585 65.5014 79.34 65.5118C79.8619 65.5448 79.8558 65.921 79.8331 66.2687C79.8104 66.6314 79.998 67.081 79.4081 67.2443C78.0649 67.616 76.7067 67.051 76.2907 65.7322C76.0608 65.0038 76.0351 64.151 76.1561 63.3912C76.324 62.3376 77.2285 61.7022 78.313 61.6272C79.638 61.5373 80.057 61.7906 80.6333 63.018C80.6439 63.0495 80.718 63.051 80.839 63.087ZM88.1916 61.2211C88.5259 61.5838 89.0038 61.861 89.022 62.1638C89.0916 63.3552 89.0658 64.5587 88.9796 65.7501C88.9116 66.7018 88.3141 67.0975 87.2341 67.066C86.1663 67.0345 85.6111 66.5804 85.5703 65.6347C85.5325 64.737 85.5431 63.8378 85.5521 62.9401C85.5582 62.3031 85.3782 61.5643 86.313 61.353C86.3251 61.35 86.3054 61.2151 86.3039 61.1776C85.3147 61.1776 84.3391 61.1776 83.3635 61.1776C84.4828 61.6093 84.0956 62.5309 84.1273 63.2728C84.1651 64.1196 84.1288 64.9693 84.144 65.8176C84.1591 66.6419 84.5281 67.2923 85.3192 67.568C85.8789 67.7644 86.4975 67.8813 87.0904 67.8858C88.7543 67.8978 89.6406 66.9896 89.6754 65.335C89.6875 64.761 89.6391 64.1825 89.6981 63.6145C89.7843 62.7767 89.3941 61.7861 90.4014 61.1147C89.6784 61.1477 88.9569 61.1836 88.1916 61.2211ZM25.0389 61.1671C24.992 61.2376 24.9436 61.308 24.8967 61.38C25.9873 61.4834 25.836 62.2192 25.8406 62.8712C25.8481 63.8948 25.8375 64.9199 25.8511 65.9435C25.8617 66.7603 26.2868 67.3372 27.0461 67.5905C27.5876 67.7704 28.1775 67.8813 28.7477 67.8903C30.3435 67.9127 31.2298 67.0735 31.3327 65.4969C31.3841 64.6996 31.3614 63.8978 31.4113 63.1019C31.4537 62.423 31.1391 61.5988 32.2402 61.29C32.1873 61.2271 32.1343 61.1656 32.0799 61.1027C31.3539 61.1492 30.6278 61.1941 29.7853 61.2481C30.7171 61.9465 30.7186 61.9465 30.7171 63.1709C30.7171 63.9457 30.7307 64.7205 30.705 65.4939C30.6687 66.5699 30.1272 67.063 29.023 67.069C27.819 67.0765 27.2472 66.5744 27.2079 65.4564C27.1882 64.8824 27.1535 64.3024 27.2109 63.7344C27.2972 62.8592 26.7602 61.7906 27.9415 61.1716C26.9735 61.1671 26.0054 61.1671 25.0389 61.1671ZM35.161 67.664C34.0886 67.3657 34.4743 66.7333 34.7178 66.1368C35.0097 65.4219 35.6344 65.7771 36.0973 65.7606C37.454 65.7097 37.5871 65.861 37.7369 67.2188C37.5024 67.3462 37.271 67.4721 36.8762 67.6849C38.0954 67.6849 39.074 67.6849 40.0511 67.6849C39.074 67.1139 38.9863 66.0739 38.59 65.2376C38.0137 64.0221 37.5327 62.7647 36.9761 61.5388C36.8944 61.359 36.6388 61.1746 36.4452 61.1537C36.3105 61.1387 36.0897 61.3725 36.0035 61.5418C34.9749 63.574 34.6634 65.9465 33.0555 67.6625C33.7377 67.664 34.4486 67.664 35.161 67.664ZM112.181 67.7164C112.217 67.658 112.255 67.601 112.291 67.5426C111.205 67.2009 111.149 66.1908 110.78 65.4009C110.199 64.16 109.697 62.8816 109.129 61.6332C109.033 61.4249 108.769 61.1596 108.586 61.1611C108.407 61.1641 108.157 61.4444 108.067 61.6557C107.525 62.9161 107.044 64.2005 106.497 65.4579C106.156 66.2402 106.049 67.1829 104.925 67.622C105.833 67.622 106.527 67.622 107.221 67.622C107.22 67.574 107.218 67.5246 107.218 67.4766C107 67.3837 106.783 67.2923 106.577 67.2054C106.773 65.8371 106.855 65.7456 107.831 65.7411C109.656 65.7337 109.656 65.7337 109.874 67.2039C109.647 67.3372 109.42 67.4721 109.194 67.6055C109.221 67.643 109.247 67.6804 109.274 67.7164C110.245 67.7164 111.213 67.7164 112.181 67.7164ZM126.376 62.8547C126.759 62.1503 126.73 61.4969 126.293 61.353C125.281 61.0218 124.262 60.9888 123.279 61.4534C122.615 61.7666 122.223 62.5489 122.301 63.3327C122.379 64.1016 122.751 64.6411 123.545 64.8344C124.082 64.9648 124.629 65.0667 125.15 65.2421C125.882 65.4894 126.113 66.2882 125.649 66.8816C125.178 67.4826 124.507 67.5036 123.858 67.3507C123.286 67.2159 122.761 66.9371 122.787 66.1967C122.79 66.0858 122.684 65.9719 122.63 65.8595C122.569 65.864 122.51 65.8685 122.45 65.873C122.397 66.4081 122.345 66.9416 122.289 67.5036C123.676 68.0851 125.004 68.229 126.27 67.3372C127.034 66.8007 127.21 66.0274 127.04 65.1462C126.88 64.3159 126.278 64.0371 125.535 63.9112C125.091 63.8363 124.647 63.7419 124.204 63.6595C123.631 63.5516 123.313 63.1289 123.453 62.6464C123.563 62.2642 123.952 61.8026 124.319 61.6797C125.277 61.3575 125.883 61.7651 126.202 62.7408C126.219 62.7917 126.316 62.8172 126.376 62.8547ZM60.4995 61.2735C58.4107 61.2735 56.4171 61.2735 54.3812 61.2735C54.419 61.7816 54.4523 62.2312 54.4855 62.6823C54.5581 62.6943 54.6307 62.7063 54.7034 62.7183C54.7941 62.444 54.8834 62.1698 54.9953 61.8296C55.5322 61.8296 56.0904 61.8296 56.7257 61.8296C56.7257 63.2084 56.7332 64.5242 56.7226 65.8416C56.7166 66.5429 56.9843 67.3912 55.8771 67.631C56.8996 67.631 57.9221 67.631 58.9446 67.631C58.9794 67.568 59.0157 67.5051 59.0505 67.4422C58.1505 67.4272 58.1369 66.8727 58.1475 66.2672C58.1656 65.2211 58.1505 64.1735 58.1505 63.1259C58.1505 62.6928 58.1505 62.2582 58.1505 61.8401C59.3106 61.7531 59.3106 61.7531 60.4269 62.7857C60.4511 62.2522 60.4738 61.8011 60.4995 61.2735ZM68.7702 61.329C68.7067 61.2691 68.6432 61.2076 68.5796 61.1477C67.1412 61.5748 67.2456 63.3537 66.1641 64.0971C65.7285 63.3402 65.317 62.5714 64.8542 61.8341C64.3006 60.9513 63.3129 60.8719 62.5127 61.6078C62.7699 61.7801 63.1026 61.8985 63.269 62.1338C63.8861 63.012 64.5713 63.8753 64.9858 64.8479C65.2475 65.4639 65.1234 66.2672 65.0569 66.9746C65.0402 67.1544 64.5819 67.2923 64.3324 67.4586C64.3097 67.4736 64.3293 67.5516 64.3293 67.6205C65.3473 67.6205 66.3652 67.6205 67.4437 67.6205C67.0882 67.3268 66.6209 67.1274 66.5997 66.8906C66.5089 65.8865 66.3592 64.8554 67.0308 63.9337C67.6403 63.087 68.1924 62.1982 68.7702 61.329ZM99.9805 61.8206C99.9805 63.2878 99.9639 64.728 99.9881 66.1668C99.9987 66.8262 99.9775 67.4152 99.132 67.6265C100.156 67.6265 101.18 67.6265 102.21 67.6265C101.901 67.3268 101.466 67.1005 101.457 66.8592C101.396 65.1956 101.425 63.5276 101.425 61.8026C101.944 61.8026 102.437 61.6887 102.827 61.8386C103.142 61.9599 103.329 62.4006 103.664 62.8082C103.664 62.2222 103.664 61.7531 103.664 61.2765C101.653 61.2765 99.6583 61.2765 97.6209 61.2765C97.6663 61.7861 97.7056 62.2357 97.745 62.6853C97.8009 62.7288 97.8554 62.7737 97.9113 62.8172C98.1246 61.4369 99.0503 61.7756 99.9805 61.8206ZM44.1154 67.1874C44.1154 65.6527 44.1108 64.2604 44.1184 62.8667C44.1214 62.2777 43.9793 61.5988 44.8581 61.4474C44.8656 61.4459 44.8596 61.356 44.8596 61.299C43.8643 61.299 42.8796 61.299 41.8965 61.299C41.842 61.359 41.786 61.4189 41.7316 61.4774C42.9008 61.5628 42.6845 62.3421 42.6996 62.988C42.7178 63.8108 42.7299 64.6351 42.6921 65.4564C42.6558 66.2342 42.9144 67.0795 42.1052 67.7854C43.6374 67.7854 45.0169 67.7988 46.3963 67.7704C46.596 67.7659 46.9257 67.5935 46.962 67.4436C47.0694 67.0015 47.0604 66.531 47.1027 65.9869C46.4039 66.1308 46.8017 67.1979 45.9516 67.1035C45.3905 67.042 44.8112 67.1499 44.1154 67.1874ZM49.3443 61.2376C49.3035 61.302 49.2611 61.3665 49.2203 61.4309C50.2398 61.5058 50.093 62.1922 50.0946 62.7962C50.0961 63.8948 50.0809 64.9948 50.0885 66.0933C50.0931 66.6853 50.152 67.2878 49.3519 67.4452C49.3458 67.4466 49.3564 67.5351 49.3595 67.5905C50.3305 67.5905 51.3001 67.5905 52.2439 67.5905C51.9792 67.3223 51.5572 67.0945 51.5496 66.8532C51.4922 65.1372 51.5194 63.4182 51.5194 61.7531C51.8567 61.6048 52.0972 61.4999 52.3362 61.3949C52.3135 61.3425 52.2923 61.29 52.2696 61.2376C51.294 61.2376 50.3184 61.2376 49.3443 61.2376ZM92.4449 67.3957C92.5024 67.4556 92.5599 67.5141 92.6173 67.574C93.5899 67.574 94.564 67.574 95.4837 67.574C95.228 67.3103 94.806 67.078 94.7985 66.8322C94.7395 65.1222 94.7682 63.4092 94.7682 61.7456C95.1191 61.5973 95.3581 61.4969 95.5956 61.3964C95.5744 61.3455 95.5517 61.2945 95.5306 61.2436C94.5504 61.2436 93.5688 61.2436 92.5886 61.2436C93.5597 61.5688 93.3494 62.3331 93.3525 62.991C93.357 64.0117 93.3525 65.0323 93.3434 66.0544C93.3373 66.6493 93.5143 67.3462 92.4449 67.3957ZM130.708 49.0877C129.799 49.0862 129.128 49.7831 129.14 50.7183C129.152 51.6265 129.808 52.2979 130.686 52.2979C131.516 52.2979 132.263 51.5665 132.289 50.7273C132.316 49.8415 131.59 49.0892 130.708 49.0877Z" fill="white"/>
<path d="M50.1873 19.2682C50.1873 20.5391 50.1873 21.759 50.1873 22.9804C50.1888 27.3027 50.1843 31.6234 50.1979 35.9456C50.2024 37.251 50.7772 38.2731 51.954 38.8755C53.1277 39.4765 54.3045 39.3746 55.3769 38.6043C56.2724 37.9598 56.7004 37.0396 56.7034 35.9561C56.717 32.0835 56.7186 28.2124 56.7049 24.3398C56.7004 23.1318 56.0409 22.7991 54.6842 23.2682C54.5994 21.0696 56.3147 19.1723 58.5624 18.9774C60.804 18.7826 62.9881 20.4252 63.1908 22.5923C63.327 24.0535 63.2649 25.5357 63.2665 27.0074C63.2695 29.8055 63.2528 32.6035 63.2453 35.4001C63.2438 36.2169 63.3859 36.9872 63.9592 37.6286C64.6973 38.4544 65.8197 38.8021 66.8301 38.4574C67.969 38.0678 68.7057 37.3154 68.8357 36.0835C68.8705 35.7613 68.8645 35.4346 68.8645 35.1108C68.866 30.2641 68.866 25.4188 68.866 20.572C68.866 20.2753 68.866 19.9786 68.866 19.6174C71.0668 19.6174 73.2131 19.6174 75.4472 19.6174C75.4472 19.9186 75.4472 20.2109 75.4472 20.5031C75.4472 25.5492 75.4411 30.5953 75.4517 35.6414C75.4547 36.9767 76.2594 38.0872 77.4755 38.5219C78.6432 38.9385 80.0015 38.5818 80.8425 37.6301C81.4052 36.9947 81.5852 36.2423 81.5806 35.4121C81.567 32.8898 81.5761 30.366 81.5761 27.8437C81.5761 21.6481 81.5761 15.454 81.5761 9.25843C81.5761 7.61437 81.1284 7.10781 79.4615 6.90549C79.4615 6.42891 79.4615 5.94483 79.4615 5.44727C82.3414 5.44727 85.2002 5.44727 88.1436 5.44727C88.1436 5.81744 88.1436 6.10969 88.1436 6.40193C88.1436 16.5196 88.1421 26.6357 88.1452 36.7534C88.1452 38.1112 88.7638 39.0494 89.8453 39.3686C91.4652 39.8467 92.9778 38.8606 93.0534 37.1865C93.1275 35.5664 93.0746 33.9404 93.0897 32.3173C93.1094 30.1112 93.3121 27.9306 94.1047 25.8429C95.0848 23.2592 96.5989 21.0906 99.1869 19.8767C102.758 18.2026 106.048 18.8785 109.062 21.2465C110.147 22.0992 111.148 23.0599 112.258 23.8752C113.511 24.7954 114.977 24.6889 116.141 23.6623C116.587 23.2682 116.935 22.7646 117.339 22.3225C117.76 21.8624 118.138 21.3439 118.631 20.9752C120.255 19.7598 122.335 19.8886 123.81 21.2629C124.088 21.5237 124.268 21.5941 124.642 21.4113C127.805 19.8602 131.349 20.5121 133.807 23.1078C132.845 24.6845 131.873 26.2791 130.887 27.8961C130.435 27.6309 130.025 27.3536 129.583 27.1378C127.207 25.9763 124.382 27.5664 124.341 30.1876C124.273 34.5578 124.294 38.931 124.359 43.3012C124.388 45.2734 125.143 46.9969 126.708 48.3038C127.759 49.182 127.759 49.182 127.122 50.5383C123.093 48.7234 118.837 47.7238 114.393 47.2457C114.393 46.9085 114.388 46.6388 114.394 46.3675C114.399 46.1981 114.421 46.0288 114.438 45.837C114.592 45.816 114.713 45.795 114.834 45.7845C116.805 45.6241 117.696 44.7099 117.711 42.7557C117.739 39.2083 117.754 35.6609 117.74 32.115C117.732 30.1442 115.981 29.0202 114.35 29.9029C113.686 30.2626 113.279 30.8276 113.237 31.5784C113.172 32.7249 113.177 33.8744 113.118 35.0209C113.001 37.2899 112.508 39.4735 111.416 41.4848C110.124 43.8632 108.29 45.6556 105.585 46.3645C102.381 47.2038 99.503 46.5578 97.0254 44.3323C96.8757 44.1989 96.735 44.055 96.5913 43.9141C96.4673 43.7927 96.3463 43.6669 96.2071 43.5245C91.8676 46.6043 87.7443 46.2491 83.7693 42.7347C81.3598 44.7564 78.5857 45.2765 75.6272 44.4147C75.3609 45.9524 75.2309 47.454 74.8255 48.8808C73.9376 52.0116 72.3071 54.6463 69.2199 56.1345C65.8832 57.7425 61.8371 57.1416 59.4155 54.6792C59.1402 54.4005 58.9103 54.0768 58.6108 53.7141C59.3701 53.846 60.0205 54.0243 60.68 54.0633C63.2589 54.2206 65.1753 52.9917 66.703 51.0749C68.3139 49.0531 68.9598 46.7212 68.8524 44.049C67.2264 44.4702 65.6609 44.8358 64.0061 44.5856C62.3483 44.3353 60.9734 43.5679 59.6212 42.5743C58.0239 44.1329 56.1498 45.1221 53.8961 45.3139C51.6469 45.5043 49.6065 44.9273 47.6795 43.6264C46.0837 45.3574 44.0947 46.4005 41.7487 46.7317C39.3891 47.0629 37.1989 46.5398 35.1327 45.3019C34.0422 46.6193 32.7413 47.6744 31.1078 48.127C29.5892 48.5481 28.0131 48.7909 26.4491 49.0202C22.3213 49.6241 18.4552 50.8321 15.1956 53.5432C15.1608 53.5717 15.1018 53.5717 15.0186 53.5942C14.704 53.227 14.3803 52.8493 14.0294 52.4417C14.4136 52.1045 14.7736 51.7972 15.123 51.478C17.6127 49.2075 18.7078 46.3345 18.7183 43.0434C18.7441 34.5503 18.7304 26.0573 18.7304 17.5642C18.7304 17.4173 18.7032 17.2719 18.682 17.0471C18.4264 17.0351 18.1859 17.0082 17.9454 17.0157C15.7537 17.0846 13.562 17.1595 11.3703 17.23C9.88495 17.2779 9.04548 17.9104 8.88061 19.1153C8.69607 20.4596 9.36311 21.3723 10.8348 21.7875C10.9301 21.8145 11.0269 21.8309 11.1132 21.9044C8.67036 22.5143 6.36521 22.2701 4.41702 20.5631C2.56413 18.9385 2.24195 16.8028 2.95891 14.5938C3.74242 12.1794 5.67699 10.9849 8.14096 10.7421C9.8668 10.5713 11.6153 10.6282 13.3548 10.5863C22.1867 10.3735 30.9414 9.45177 39.6145 7.77773C40.7943 7.54993 41.971 7.31014 43.1523 7.07634C43.6001 9.93734 42.1132 13.2075 38.902 14.2626C36.8646 14.931 34.7047 15.2682 32.5765 15.6114C30.3666 15.9681 28.1326 16.1794 25.903 16.3952C25.2057 16.4626 25.2617 16.8643 25.2617 17.3244C25.2587 24.094 25.2526 30.8635 25.2481 37.6331C25.2481 38.4319 25.2315 39.2322 25.2496 40.031C25.2889 41.7725 26.4642 42.952 28.131 42.9475C29.6648 42.9445 30.8249 41.7201 30.8461 40.025C30.8718 38.0513 30.8355 36.0775 30.8658 34.1052C30.8975 31.9726 31.2182 29.8789 31.9321 27.8587C33.605 23.1213 37.7479 20.1539 42.815 20.007C44.6997 19.9516 46.5844 19.8392 48.4645 19.6968C49.0256 19.6563 49.5732 19.427 50.1873 19.2682Z" fill="black"/>
<path d="M99.5525 32.7608C99.5933 32.7653 99.6327 32.7683 99.6735 32.7728C99.6735 33.3723 99.6402 33.9733 99.6795 34.5683C99.7794 36.0655 99.9155 37.5626 100.793 38.8605C101.973 40.605 104.051 40.7069 105.329 39.0359C105.727 38.5158 106.025 37.8639 106.181 37.2284C106.811 34.6492 106.773 32.025 106.371 29.4263C106.224 28.4731 105.86 27.4705 105.318 26.6762C104.202 25.0411 102.098 25.0576 100.936 26.6627C100.481 27.2906 100.145 28.0759 99.9987 28.8343C99.7491 30.1231 99.6916 31.4495 99.5525 32.7608Z" fill="black"/>
<path d="M43.6419 26.1982C41.1069 26.1382 38.9726 27.6234 38.0984 29.9194C37.2695 32.097 37.1394 34.3615 37.4026 36.629C37.5145 37.5897 37.8654 38.5908 38.3646 39.4241C39.4612 41.251 42.028 41.209 43.0929 39.3641C43.4619 38.7257 43.654 37.9029 43.6646 37.1611C43.7115 34.0423 43.6586 30.922 43.6419 27.8018C43.6404 27.2832 43.6419 26.7647 43.6419 26.1982Z" fill="black"/>
<path d="M17.5353 68.9244C17.9543 68.6066 18.3733 68.2889 18.818 67.9517C16.5249 67.09 15.7369 65.8251 16.1483 63.7434C16.4841 62.0454 17.8363 61.0398 19.721 61.0907C21.8159 61.1462 23.0093 62.0484 23.2422 63.7539C23.5447 65.9764 22.5797 67.1859 19.7996 68.178C20.9053 68.4388 22.011 68.7011 23.1212 68.9633C22.7249 69.2166 22.3543 69.7397 21.6147 69.5164C21.1352 69.371 20.6406 69.2751 20.1566 69.1432C19.3217 68.9169 18.4913 68.5677 17.6306 69.1642C17.5973 69.0832 17.5656 69.0038 17.5353 68.9244ZM21.8824 64.5602C21.7539 63.9847 21.6873 63.3552 21.4665 62.7857C21.1745 62.0364 20.5952 61.5958 19.7195 61.6093C18.8225 61.6227 18.1298 61.9615 17.8378 62.8202C17.4309 64.0207 17.4567 65.2331 18.0481 66.3781C18.4292 67.1155 19.0948 67.4287 19.9237 67.3807C20.7435 67.3343 21.2971 66.8966 21.5481 66.1428C21.71 65.6542 21.766 65.1282 21.8824 64.5602Z" fill="black"/>
<path d="M116.662 64.2664C117.784 64.121 118.294 63.5425 118.164 62.6029C118.059 61.852 117.487 61.5583 116.29 61.7291C116.29 62.6208 116.288 63.5351 116.29 64.4493C116.291 65.0472 116.291 65.6467 116.3 66.2447C116.308 66.7872 116.155 67.4302 117.209 67.3717C117.149 67.4391 117.088 67.5066 117.029 67.5725C116.057 67.5725 115.085 67.5725 114.113 67.5725C115.102 67.3867 114.851 66.5999 114.878 65.9869C114.922 64.9918 114.928 63.9921 114.91 62.9955C114.898 62.3481 115.12 61.5493 114.016 61.4429C114.13 61.323 114.176 61.2316 114.223 61.2316C115.506 61.2181 116.787 61.2061 118.07 61.2091C118.75 61.2106 119.325 61.4249 119.529 62.1443C119.74 62.8846 119.411 63.4526 118.85 63.9127C118.661 64.0671 118.448 64.1915 118.136 64.4028C118.915 65.4878 119.67 66.5399 120.411 67.5725C119.306 67.9352 118.815 67.7659 118.23 66.7977C117.728 65.9674 117.208 65.1476 116.662 64.2664Z" fill="black"/>
<path d="M80.8384 63.0869C80.7174 63.0509 80.6433 63.0494 80.6312 63.0209C80.0549 61.7935 79.6359 61.5402 78.3109 61.6301C77.2279 61.7036 76.3219 62.339 76.154 63.3941C76.033 64.1539 76.0587 65.0067 76.2886 65.7351C76.7046 67.0539 78.0629 67.6189 79.406 67.2472C79.9944 67.0839 79.8084 66.6358 79.8311 66.2716C79.8522 65.9224 79.8598 65.5477 79.338 65.5148C79.158 65.5028 78.9825 65.4293 78.8176 65.2105C79.7388 65.2105 80.6599 65.2105 81.4435 65.2105C81.3693 65.7545 81.3073 66.3555 81.1954 66.949C81.1606 67.1318 81.029 67.3926 80.8823 67.4436C79.6057 67.8812 78.3094 68.1225 76.9648 67.7163C75.3751 67.2367 74.522 66.0183 74.5689 64.2529C74.6097 62.7497 75.5626 61.5087 77.1281 61.26C78.1476 61.0981 79.22 61.2195 80.2652 61.2824C80.9337 61.3229 81.2347 61.7126 81.0048 62.4005C80.9322 62.6208 80.8929 62.8531 80.8384 63.0869Z" fill="black"/>
<path d="M88.1916 61.2209C88.9554 61.1835 89.6784 61.149 90.3999 61.113C89.3941 61.7845 89.7843 62.7751 89.6966 63.6129C89.6376 64.1809 89.686 64.7594 89.6739 65.3334C89.6406 66.9879 88.7542 67.8961 87.0889 67.8841C86.496 67.8796 85.8773 67.7627 85.3177 67.5664C84.5281 67.2907 84.1576 66.6402 84.1424 65.8159C84.1273 64.9677 84.1621 64.1179 84.1258 63.2712C84.0925 62.5293 84.4797 61.6076 83.3619 61.176C84.3375 61.176 85.3132 61.176 86.3024 61.176C86.3054 61.2135 86.3235 61.3498 86.3114 61.3513C85.3767 61.5626 85.5567 62.3015 85.5506 62.9384C85.5431 63.8362 85.531 64.7369 85.5688 65.6331C85.6096 66.5788 86.1647 67.0344 87.2326 67.0643C88.3126 67.0958 88.9085 66.7002 88.9781 65.7485C89.0643 64.557 89.09 63.3536 89.0205 62.1621C89.0038 61.8609 88.5258 61.5836 88.1916 61.2209Z" fill="black"/>
<path d="M25.0395 61.1671C26.0076 61.1671 26.9741 61.1671 27.9421 61.1671C26.7623 61.786 27.2993 62.8561 27.2116 63.7298C27.1556 64.2993 27.1889 64.8778 27.2085 65.4518C27.2479 66.5713 27.8196 67.0719 29.0236 67.0644C30.1278 67.0584 30.6693 66.5653 30.7056 65.4893C30.7313 64.716 30.7162 63.9412 30.7177 63.1663C30.7192 61.9434 30.7177 61.9434 29.786 61.2435C30.6285 61.1896 31.3545 61.1446 32.0805 61.0981C32.1335 61.1611 32.1864 61.2225 32.2408 61.2855C31.1397 61.5942 31.4543 62.4185 31.412 63.0974C31.362 63.8947 31.3847 64.6965 31.3333 65.4923C31.2305 67.0689 30.3441 67.9082 28.7483 67.8857C28.1781 67.8782 27.5882 67.7673 27.0467 67.586C26.2889 67.3327 25.8639 66.7557 25.8518 65.9389C25.8382 64.9153 25.8472 63.8902 25.8412 62.8666C25.8366 62.2147 25.9879 61.4788 24.8973 61.3754C24.9442 61.3095 24.9911 61.239 25.0395 61.1671Z" fill="black"/>
<path d="M35.1606 67.6639C34.4497 67.6639 33.7388 67.6639 33.0566 67.6639C34.6645 65.9464 34.9761 63.574 36.0046 61.5433C36.0908 61.3724 36.3117 61.1401 36.4463 61.1551C36.6399 61.1761 36.8955 61.3604 36.9772 61.5403C37.5323 62.7647 38.0148 64.0236 38.5911 65.239C38.9874 66.0753 39.0751 67.1154 40.0523 67.6864C39.0751 67.6864 38.0965 67.6864 36.8774 67.6864C37.2722 67.4721 37.5036 67.3462 37.738 67.2203C37.5883 65.8625 37.4552 65.7111 36.0984 65.7621C35.6356 65.7801 35.0109 65.4234 34.719 66.1383C34.4739 66.7332 34.0867 67.3657 35.1606 67.6639ZM36.0712 62.7887C35.7157 63.6729 35.4299 64.3863 35.1213 65.1551C35.8337 65.1551 36.4055 65.1551 37.0649 65.1551C36.7292 64.3578 36.4357 63.6579 36.0712 62.7887Z" fill="black"/>
<path d="M112.181 67.7164C111.213 67.7164 110.245 67.7164 109.277 67.7164C109.25 67.6789 109.224 67.6415 109.197 67.6055C109.424 67.4721 109.651 67.3372 109.879 67.2039C109.66 65.7352 109.66 65.7352 107.834 65.7411C106.859 65.7456 106.777 65.8371 106.58 67.2054C106.786 67.2923 107.004 67.3852 107.222 67.4766C107.223 67.5246 107.225 67.574 107.225 67.622C106.531 67.622 105.838 67.622 104.929 67.622C106.053 67.1829 106.16 66.2387 106.5 65.4579C107.048 64.2005 107.529 62.9161 108.07 61.6557C108.161 61.4444 108.409 61.1642 108.589 61.1612C108.772 61.1582 109.037 61.4249 109.132 61.6332C109.701 62.8816 110.202 64.1585 110.784 65.4009C111.154 66.1908 111.21 67.2009 112.295 67.5426C112.256 67.601 112.219 67.658 112.181 67.7164ZM108.258 63.003C108.196 63.0075 108.134 63.0135 108.07 63.018C107.789 63.7164 107.508 64.4163 107.21 65.1552C107.902 65.1552 108.479 65.1552 109.149 65.1552C108.824 64.3698 108.541 63.6864 108.258 63.003Z" fill="black"/>
<path d="M126.376 62.8545C126.315 62.8171 126.219 62.7931 126.202 62.7421C125.883 61.765 125.276 61.3588 124.319 61.6811C123.951 61.8055 123.563 62.2655 123.452 62.6477C123.313 63.1318 123.631 63.5544 124.204 63.6608C124.649 63.7433 125.09 63.8377 125.535 63.9126C126.279 64.0385 126.881 64.3173 127.04 65.1475C127.209 66.0303 127.034 66.8021 126.27 67.3386C125.002 68.2288 123.676 68.0865 122.289 67.505C122.343 66.943 122.396 66.4094 122.449 65.8744C122.51 65.8699 122.569 65.8654 122.629 65.8609C122.684 65.9733 122.791 66.0872 122.787 66.1981C122.761 66.9385 123.286 67.2172 123.857 67.3521C124.506 67.505 125.176 67.484 125.648 66.883C126.113 66.2895 125.883 65.4907 125.149 65.2434C124.627 65.0681 124.08 64.9662 123.544 64.8358C122.75 64.6425 122.378 64.1029 122.301 63.3341C122.221 62.5503 122.613 61.768 123.278 61.4548C124.261 60.9902 125.281 61.0231 126.293 61.3544C126.73 61.4952 126.757 62.1487 126.376 62.8545Z" fill="black"/>
<path d="M60.4995 61.2734C60.4738 61.801 60.4526 62.2521 60.4254 62.7871C59.3091 61.7545 59.3091 61.7545 58.149 61.8414C58.149 62.2596 58.149 62.6927 58.149 63.1273C58.1505 64.1749 58.1641 65.221 58.1459 66.2686C58.1353 66.874 58.149 67.4286 59.0489 67.4435C59.0141 67.5065 58.9778 67.5694 58.9431 67.6324C57.9206 67.6324 56.8981 67.6324 55.8756 67.6324C56.9813 67.3926 56.715 66.5443 56.7211 65.8429C56.7317 64.5271 56.7241 63.2097 56.7241 61.831C56.0888 61.831 55.5307 61.831 54.9937 61.831C54.8818 62.1712 54.7911 62.4454 54.7018 62.7197C54.6292 62.7077 54.5566 62.6957 54.484 62.6837C54.4507 62.2326 54.4175 61.7815 54.3796 61.2749C56.4171 61.2734 58.4106 61.2734 60.4995 61.2734Z" fill="black"/>
<path d="M68.7704 61.3289C68.1911 62.1981 67.6406 63.0869 67.0265 63.9306C66.3549 64.8538 66.5046 65.8849 66.5954 66.8875C66.6166 67.1258 67.0839 67.3237 67.4394 67.6174C66.3609 67.6174 65.3445 67.6174 64.325 67.6174C64.325 67.55 64.3054 67.4705 64.328 67.4555C64.5776 67.2892 65.0359 67.1528 65.0526 66.9715C65.1191 66.2626 65.2431 65.4608 64.9815 64.8448C64.5685 63.8722 63.8818 63.0089 63.2647 62.1307C63.0998 61.8954 62.7656 61.777 62.5084 61.6062C63.3101 60.8703 64.2978 60.9497 64.8514 61.8325C65.3142 62.5698 65.7272 63.3401 66.1613 64.0955C67.2443 63.3536 67.1399 61.5747 68.5768 61.1461C68.6434 61.209 68.7069 61.269 68.7704 61.3289Z" fill="black"/>
<path d="M99.9802 61.8206C99.05 61.7756 98.1243 61.4384 97.911 62.8187C97.8551 62.7753 97.8006 62.7303 97.7446 62.6868C97.7053 62.2372 97.666 61.7876 97.6206 61.2781C99.658 61.2781 101.655 61.2781 103.663 61.2781C103.663 61.7547 103.663 62.2237 103.663 62.8097C103.329 62.4021 103.141 61.96 102.827 61.8401C102.437 61.6902 101.942 61.8041 101.425 61.8041C101.425 63.5291 101.396 65.1956 101.456 66.8607C101.466 67.102 101.901 67.3268 102.21 67.628C101.18 67.628 100.156 67.628 99.1317 67.628C99.9772 67.4167 99.9999 66.8292 99.9878 66.1683C99.9636 64.7281 99.9802 63.2878 99.9802 61.8206Z" fill="black"/>
<path d="M44.1151 67.1873C44.8109 67.1483 45.3902 67.0419 45.9483 67.1034C46.7984 67.1978 46.4006 66.1307 47.0994 65.9869C47.057 66.5309 47.0661 67 46.9587 67.4436C46.9224 67.5935 46.5927 67.7658 46.393 67.7703C45.0136 67.7988 43.6341 67.7853 42.1019 67.7853C42.9111 67.0794 42.6525 66.2356 42.6888 65.4563C42.7266 64.635 42.7145 63.8108 42.6963 62.988C42.6827 62.342 42.8975 61.5642 41.7283 61.4773C41.7827 61.4173 41.8387 61.3574 41.8931 61.299C42.8778 61.299 43.8625 61.299 44.8563 61.299C44.8563 61.3559 44.8638 61.4458 44.8547 61.4473C43.9759 61.5987 44.1181 62.2761 44.1151 62.8666C44.1106 64.2604 44.1151 65.6541 44.1151 67.1873Z" fill="black"/>
<path d="M49.3445 61.2377C50.3201 61.2377 51.2942 61.2377 52.2698 61.2377C52.2925 61.2901 52.3137 61.3426 52.3364 61.395C52.0959 61.4999 51.8569 61.6048 51.5196 61.7532C51.5196 63.4183 51.4923 65.1373 51.5498 66.8533C51.5574 67.0946 51.9809 67.3224 52.2441 67.5906C51.3002 67.5906 50.3322 67.5906 49.3596 67.5906C49.3566 67.5337 49.346 67.4452 49.3521 67.4452C50.1522 67.2894 50.0917 66.6854 50.0887 66.0934C50.0811 64.9949 50.0947 63.8948 50.0947 62.7963C50.0947 62.1923 50.2399 61.5059 49.2205 61.431C49.2613 61.3666 49.3021 61.3021 49.3445 61.2377Z" fill="black"/>
<path d="M92.4445 67.3955C93.5138 67.346 93.3369 66.6492 93.3414 66.0557C93.3505 65.0351 93.3565 64.0145 93.3505 62.9923C93.3475 62.3344 93.5577 61.5701 92.5866 61.2449C93.5668 61.2449 94.5484 61.2449 95.5286 61.2449C95.5498 61.2958 95.5724 61.3468 95.5936 61.3977C95.3561 61.4982 95.1172 61.5986 94.7662 61.7469C94.7662 63.4105 94.739 65.1235 94.7965 66.8335C94.8056 67.0793 95.2276 67.3116 95.4817 67.5753C94.5605 67.5753 93.588 67.5753 92.6154 67.5753C92.5594 67.5154 92.5019 67.4554 92.4445 67.3955Z" fill="black"/>
<path d="M99.5525 32.7609C99.6916 31.4495 99.7491 30.1232 100 28.8343C100.147 28.0745 100.484 27.2907 100.938 26.6627C102.1 25.0576 104.204 25.0426 105.32 26.6762C105.863 27.4705 106.226 28.4731 106.373 29.4263C106.773 32.025 106.813 34.6492 106.182 37.2285C106.026 37.8654 105.728 38.5159 105.33 39.0359C104.052 40.7069 101.976 40.605 100.794 38.8606C99.917 37.5642 99.7809 36.0655 99.6811 34.5683C99.6417 33.9718 99.675 33.3709 99.675 32.7729C99.6327 32.7684 99.5918 32.7654 99.5525 32.7609Z" fill="white"/>
<path d="M43.6419 26.1982C43.6419 26.7647 43.6404 27.2832 43.6419 27.8018C43.657 30.922 43.71 34.0423 43.6646 37.1611C43.654 37.9029 43.4619 38.7257 43.0929 39.3642C42.028 41.209 39.4612 41.2495 38.3646 39.4241C37.8654 38.5923 37.5145 37.5897 37.4026 36.629C37.1394 34.3615 37.2695 32.097 38.0984 29.9194C38.9741 27.6234 41.1069 26.1382 43.6419 26.1982Z" fill="white"/>
<path d="M21.8824 64.5601C21.7659 65.1281 21.71 65.6541 21.5466 66.1442C21.2955 66.898 20.7419 67.3342 19.9221 67.3821C19.0932 67.4301 18.4277 67.1168 18.0465 66.3795C17.4551 65.2345 17.4279 64.022 17.8363 62.8216C18.1282 61.9613 18.821 61.6226 19.7179 61.6107C20.5922 61.5972 21.1715 62.0378 21.4649 62.7871C21.6873 63.3551 21.7538 63.9846 21.8824 64.5601Z" fill="white"/>
<path d="M36.0716 62.7887C36.4362 63.6579 36.7296 64.3578 37.0639 65.1551C36.4044 65.1551 35.8327 65.1551 35.1202 65.1551C35.4303 64.3863 35.7162 63.6744 36.0716 62.7887Z" fill="white"/>
<path d="M108.258 63.0031C108.54 63.6865 108.823 64.3699 109.148 65.1552C108.478 65.1552 107.902 65.1552 107.209 65.1552C107.507 64.4163 107.789 63.7164 108.07 63.018C108.132 63.0135 108.194 63.0075 108.258 63.0031Z" fill="white"/>
<path d="M130.661 49.2855C131.431 49.2645 132.054 49.8579 132.069 50.6283C132.087 51.451 131.488 52.088 130.699 52.0895C129.949 52.091 129.333 51.475 129.313 50.7062C129.295 49.9569 129.914 49.3049 130.661 49.2855ZM131.195 51.4406C131.251 51.4106 131.307 51.3821 131.363 51.3521C131.01 50.8651 130.659 50.3795 130.315 49.9044C130.315 50.3915 130.315 50.901 130.315 51.4121C130.348 51.4106 130.381 51.4076 130.413 51.4061C130.472 51.1903 130.531 50.9745 130.623 50.6373C130.867 50.9775 131.03 51.2098 131.195 51.4406Z" fill="white"/>
</g>
<defs>
<clipPath id="clip0_17_886">
<rect width="136.131" height="74.9345" fill="white" transform="translate(0.143555 0.0655518)"/>
</clipPath>
</defs>
</svg>
